<?xml version="1.0" encoding="UTF-8" standalone="no"?>
<!-- Created with Inkscape (http://www.inkscape.org/) -->

<svg
   xmlns:dc="http://purl.org/dc/elements/1.1/"
   xmlns:cc="http://creativecommons.org/ns#"
   xmlns:rdf="http://www.w3.org/1999/02/22-rdf-syntax-ns#"
   xmlns:svg="http://www.w3.org/2000/svg"
   xmlns="http://www.w3.org/2000/svg"
   xmlns:sodipodi="http://sodipodi.sourceforge.net/DTD/sodipodi-0.dtd"
   xmlns:inkscape="http://www.inkscape.org/namespaces/inkscape"
   version="1.1"
   id="svg64"
   width="123.52"
   height="127.04"
   viewBox="0 0 123.52 127.04"
   sodipodi:docname="calliope-logo-square.svg"
   inkscape:version="0.92.3 (2405546, 2018-03-11)">
  <metadata
     id="metadata70">
    <rdf:RDF>
      <cc:Work
         rdf:about="">
        <dc:format>image/svg+xml</dc:format>
        <dc:type
           rdf:resource="http://purl.org/dc/dcmitype/StillImage" />
        <dc:title></dc:title>
      </cc:Work>
    </rdf:RDF>
  </metadata>
  <defs
     id="defs68" />
  <sodipodi:namedview
     pagecolor="#ffffff"
     bordercolor="#666666"
     borderopacity="1"
     objecttolerance="10"
     gridtolerance="10"
     guidetolerance="10"
     inkscape:pageopacity="0"
     inkscape:pageshadow="2"
     inkscape:window-width="3840"
     inkscape:window-height="2049"
     id="namedview66"
     showgrid="false"
     inkscape:zoom="14.113665"
     inkscape:cx="61.759998"
     inkscape:cy="63.52"
     inkscape:window-x="0"
     inkscape:window-y="55"
     inkscape:window-maximized="1"
     inkscape:current-layer="svg64" />
  <g
     id="g74"
     transform="translate(-0.28341339,0.14170663)">
    <path
       style="fill:#8fccdb;stroke-width:0.31999999"
       d="M 88.8,116.13368 C 65.995053,114.2241 48.517107,107.58996 37.443046,96.64 27.070084,86.383283 24.611798,73.59007 31.12987,63.785491 31.960442,62.536131 32.64,61.404512 32.64,61.270778 c 0,-0.385668 -4.330482,0.05395 -8,0.812137 -1.848,0.381831 -6.162004,1.401376 -9.586674,2.265661 C 11.628655,65.212858 8.7041565,65.92 8.5544403,65.92 6.3560698,65.92 23.794109,58.081987 31.68,55.525571 c 1.95953,-0.635232 3.077869,-1.215075 4,-2.073949 2.994829,-2.789382 5.681334,-3.884195 9.557914,-3.895078 2.198956,-0.0062 2.783897,0.123872 4.617609,1.026605 1.919719,0.945075 2.183895,0.998195 3.082083,0.619757 C 57.928861,49.09991 59.202381,48.824682 64,48.812134 c 2.552,-0.0067 5.17288,0.101056 5.824179,0.239399 l 1.184176,0.251533 0.50881,-1.691533 c 0.68591,-2.280304 1.653017,-7.988839 2.107958,-12.442589 C 74.290026,28.659661 73.448106,17.959703 71.701366,10.72 71.355715,9.2873869 71.204858,8.0362742 71.358803,7.8790512 c 0.360355,-0.3680227 3.964407,1.328239 6.7336,3.1691948 3.239792,2.153809 6.751725,6.051598 8.301011,9.213044 1.938973,3.956626 2.394116,6.06786 2.358189,10.93871 -0.02486,3.370131 -0.184589,4.73721 -0.84127,7.2 -1.042755,3.91072 -2.763891,7.970906 -4.784685,11.287168 -0.882387,1.448058 -1.832682,3.013872 -2.111766,3.47959 -0.425335,0.70978 -0.438516,0.929786 -0.08147,1.36 0.620838,0.748068 1.379043,0.613216 2.107587,-0.374851 C 89.563296,45.304886 93.613942,36.578854 96.473027,25.214076 97.338352,21.774424 97.650938,20.96 98.105789,20.96 c 0.320285,0 1.299021,0.964665 2.272681,2.24 5.02541,6.582492 6.88799,13.939056 5.25534,20.756922 -0.81153,3.388889 -2.65255,7.269475 -4.80739,10.133212 -2.10865,2.802336 -6.365585,6.844375 -9.581585,9.097885 -2.240493,1.569955 -2.594928,1.941034 -2.412829,2.526135 0.509063,1.63566 0.777344,2.125846 1.163488,2.125846 1.33897,0 8.876132,-5.997696 12.456036,-9.911891 1.29166,-1.412269 2.45647,-2.567843 2.58847,-2.567936 1.22054,-9.6e-4 -2.21133,8.626873 -5.290893,13.301357 -2.127465,3.229289 -5.224429,6.754236 -7.695955,8.759497 -2.007773,1.628995 -2.183238,1.878314 -2.813859,3.998154 -1.763245,5.927174 -5.492749,10.963824 -10.759293,14.530285 -1.1,0.744908 -2,1.406537 -2,1.470281 0,0.285779 5.943818,4.497593 9.28,6.575843 4.798906,2.98945 13.241037,7.10292 19.76337,9.62979 3.54118,1.37192 5.09897,2.12028 4.87656,2.34269 -0.43036,0.43036 -16.927575,0.55685 -21.59993,0.16561 z M 71.280918,88.281379 c 1.232061,-0.588006 2.829802,-1.725043 3.885751,-2.765309 L 76.96,83.749379 74.88,83.346861 c -2.800442,-0.541943 -4.984608,-1.410378 -7.131942,-2.835696 -1.924506,-1.277415 -5.782189,-5.187613 -5.526343,-5.601578 0.08566,-0.138598 1.708816,-0.346723 3.607015,-0.462496 3.6248,-0.221085 8.058489,-0.860851 11.690099,-1.686841 C 79.674637,72.26992 79.68,72.265962 79.68,71.164307 c 0,-0.656899 -0.183437,-1.174784 -0.452714,-1.278115 -0.248992,-0.09555 -1.796992,0.254451 -3.44,0.777773 -3.544601,1.129008 -7.01048,1.847187 -11.088835,2.297766 -4.7224,0.521731 -4.828563,-0.13087 -0.458451,-2.818189 2.983072,-1.834384 7.066448,-4.675548 9.389814,-6.533324 1.009927,-0.807543 1.050061,-0.907485 0.560874,-1.396676 -0.48919,-0.489187 -0.706637,-0.373161 -3.03879,1.621466 -2.529088,2.163062 -7.831162,5.851341 -9.48058,6.594973 -1.612752,0.727104 -1.6191,-0.04683 -0.02138,-2.605491 C 64.564435,63.157117 66.56,59.707366 66.56,59.336432 c 0,-1.242662 -5.542445,-0.631578 -8.818893,0.972336 -3.467849,1.69761 -3.514089,1.783923 -2.728253,5.09273 1.405466,5.91776 4.031364,11.751766 7.867101,17.478502 2.612967,3.901139 4.822547,6.4 5.659111,6.4 0.35719,0 1.591024,-0.449379 2.741852,-0.998621 z M 45.07359,62.584 c 1.673312,-0.865302 2.109696,-3.038848 0.977808,-4.870278 -1.09464,-1.771168 -2.606992,-2.187501 -4.461872,-1.228304 -2.415395,1.249046 -2.541923,5.290291 -0.195286,6.237276 1.05832,0.427085 2.705309,0.365002 3.67935,-0.138694 z"
       id="path88"
       inkscape:connector-curvature="0" />
    <path
       style="fill:#a2a5a6;stroke-width:0.31999999"
       d="M 59.68,99.687232 C 49.599581,97.819616 41.293171,89.667264 39.226918,79.613491 38.239174,74.807427 38.763715,68.650131 40.49424,64.73711 c 0.721459,-1.631347 0.842154,-1.743452 1.819242,-1.689769 2.05831,0.113094 2.548422,-0.02003 3.471132,-0.942727 1.094237,-1.094236 1.266372,-2.936342 0.426202,-4.561046 l -0.509181,-0.984653 1.811757,-1.71327 c 2.061869,-1.949786 6.449306,-4.205402 10.368458,-5.330509 2.048256,-0.58801 3.128979,-0.688691 6.75815,-0.629594 2.376,0.03869 4.881485,0.107271 5.567747,0.1524 L 71.455494,49.12 72.03033,47.09255 C 73.44135,42.115869 74.068666,36.63785 74.070125,29.28 74.071725,21.872736 73.773741,18.795344 72.43303,12.365743 71.997882,10.278901 71.722851,8.4904826 71.821856,8.391479 c 0.276381,-0.2763833 3.2532,1.1947975 5.904435,2.918047 11.135549,7.237881 13.814835,20.222357 7.087139,34.345988 -0.852908,1.790534 -2.212848,4.279024 -3.022086,5.529977 C 80.982106,52.436448 80.32,53.574365 80.32,53.714198 c 0,0.377012 1.423843,1.645802 1.846931,1.645802 0.616544,0 6.717427,-9.448579 8.569283,-13.27145 2.76857,-5.715273 5.243188,-12.917981 6.571956,-19.12855 0.226643,-1.059313 0.564912,-1.84 0.797267,-1.84 0.682384,0 3.592113,4.148452 5.274533,7.52 2.04234,4.092806 2.64525,6.875482 2.46133,11.36 -0.16727,4.078618 -1.28679,7.63825 -3.65087,11.608304 -1.93149,3.243606 -7.214964,8.69407 -10.91043,11.255277 -1.777683,1.232051 -2.64,2.033398 -2.64,2.453334 0,0.848599 0.85769,2.843085 1.222614,2.843085 0.491031,0 4.880797,-2.974986 7.097386,-4.809962 1.144,-0.947049 3.40751,-3.088726 5.03002,-4.759286 1.62251,-1.670557 3.03624,-2.951162 3.14162,-2.845782 0.29094,0.290947 -1.59999,5.687683 -2.91615,8.32271 -2.578053,5.161386 -6.955532,10.711526 -10.701436,13.568192 -1.441891,1.099597 -1.678918,1.461882 -2.274092,3.475837 -1.811047,6.128198 -6.427354,12.203856 -11.479962,15.109113 -0.792,0.455402 -1.656,1.007943 -1.92,1.227866 -0.808938,0.673888 -4.832214,1.978659 -7.261296,2.354883 -2.92441,0.452939 -6.046339,0.412119 -8.898704,-0.116339 z m 7.643942,-10.072128 c 1.390573,-0.179165 2.944016,-0.6596 4.209293,-1.301821 2.249373,-1.141725 5.410768,-3.881277 5.201923,-4.507808 -0.07586,-0.227577 -1.143996,-0.579357 -2.403539,-0.791584 -3.390134,-0.571219 -6.168345,-2.092729 -9.332694,-5.111129 -1.68696,-1.609156 -2.621251,-2.727751 -2.475411,-2.963725 0.149478,-0.241863 1.182851,-0.379719 2.855372,-0.380925 4.27874,-0.0032 13.630215,-1.589728 14.328484,-2.431091 0.376358,-0.453482 0.118476,-2.239114 -0.366676,-2.538954 -0.159536,-0.0986 -1.466019,0.192215 -2.903299,0.64625 -5.222339,1.649737 -14.070275,3.140803 -14.728937,2.482141 -0.378119,-0.378119 -0.104634,-0.598109 3.900342,-3.137415 4.340909,-2.752304 9.329805,-6.523232 9.189002,-6.945641 -0.06208,-0.186247 -0.4032,-0.531396 -0.758039,-0.766999 -0.584589,-0.388153 -0.829001,-0.269165 -2.603305,1.267386 -3.812077,3.301261 -9.993152,7.376182 -10.468135,6.9012 -0.111709,-0.111709 0.787437,-1.76728 1.998103,-3.67905 1.210665,-1.911766 2.677923,-4.31943 3.260576,-5.350365 1.238489,-2.191372 1.093609,-2.433017 -1.463325,-2.440675 -4.618563,-0.01382 -8.703971,1.768381 -11.463322,5.000743 -2.087059,2.444825 -3.183616,4.447801 -3.863021,7.056214 -2.141132,8.220365 3.339124,16.982666 11.766717,18.813629 2.408736,0.523315 3.258653,0.548262 6.119891,0.179619 z"
       id="path86"
       inkscape:connector-curvature="0" />
    <path
       style="fill:#6198b4;stroke-width:0.31999999"
       d="M 59.68,99.687232 C 49.599581,97.819616 41.293171,89.667264 39.226918,79.613491 38.267539,74.945446 38.721622,69.079034 40.35496,65.04 l 0.679373,-1.68 h 1.914832 c 1.750989,0 2.007933,-0.0931 3.002835,-1.088 0.891584,-0.891584 1.088,-1.330384 1.088,-2.430627 0,-0.738445 -0.249085,-1.764295 -0.553526,-2.279671 -0.417412,-0.706624 -0.46938,-1.07286 -0.211335,-1.489372 0.608231,-0.981751 3.984336,-3.521344 5.35368,-4.027178 6.835114,-2.524883 8.060551,-2.847309 11.434906,-3.008656 1.966944,-0.09405 4.299309,-0.0022 5.570425,0.219002 2.616656,0.455673 2.729786,0.378227 3.469984,-2.375498 1.387274,-5.161002 1.934848,-10.049725 1.953412,-17.44 0.01907,-7.592527 -0.260845,-10.534553 -1.624516,-17.074257 -0.435148,-2.086842 -0.710179,-3.8752604 -0.611174,-3.974264 0.276381,-0.2763833 3.2532,1.1947975 5.904435,2.918047 11.135549,7.237881 13.814835,20.222357 7.087139,34.345988 -0.852908,1.790534 -2.212848,4.279024 -3.022086,5.529977 C 80.982106,52.436448 80.32,53.646365 80.32,53.874198 c 0,0.227834 0.355779,0.748477 0.790618,1.156989 1.048006,0.984547 1.15166,0.886887 4.724579,-4.451312 C 90.790406,43.176429 94.927776,33.590771 96.962333,24.8 c 0.941715,-4.068902 0.841101,-3.900407 1.79615,-3.007935 1.480407,1.383408 4.509497,6.249955 5.518157,8.865477 4.38272,11.364784 -0.70494,23.704676 -13.31664,32.298858 -1.452,0.989459 -2.64,1.98576 -2.64,2.214003 0,0.228243 0.381478,1.390275 0.847725,2.582291 0.748294,1.913092 0.850832,2.636487 0.874195,6.167306 0.02534,3.830941 -0.0248,4.148771 -1.186528,7.52 -0.667146,1.936 -1.797014,4.508915 -2.510816,5.717587 -1.587494,2.688093 -5.093638,6.43745 -7.555174,8.079258 C 77.783229,95.907946 76.6,96.771011 76.16,97.154765 c -0.44,0.383757 -1.808,1.056531 -3.04,1.495056 -4.179856,1.487799 -9.000595,1.859909 -13.44,1.037411 z M 67.56385,89.62879 c 4.64639,-0.488051 8.247788,-3.051692 10.415033,-7.4139 1.720947,-3.463908 1.977456,-4.528989 2.083645,-8.651719 0.113363,-4.401155 -0.04599,-4.635446 -2.561882,-3.766729 -5.595497,1.932083 -15.326857,3.57846 -15.643833,2.646668 -0.06677,-0.196291 1.504128,-1.37694 3.490889,-2.623664 1.986765,-1.246726 4.908298,-3.246124 6.492298,-4.44311 2.928422,-2.212928 3.441526,-3.032384 2.335555,-3.73001 -0.43583,-0.274918 -0.786934,-0.136102 -1.76,0.695844 -4.410061,3.770489 -10.968288,8.171763 -11.453513,7.686537 -0.108256,-0.108253 0.793718,-1.760998 2.004384,-3.672768 1.210665,-1.911766 2.681244,-4.325235 3.267952,-5.363261 1.034361,-1.830035 1.048211,-1.901379 0.456182,-2.350377 -0.828182,-0.628103 -4.768816,-0.330554 -7.33056,0.553513 -1.997469,0.689332 -5.28,2.67128 -5.28,3.187991 0,0.163501 -0.580854,0.968397 -1.290787,1.788659 -1.577095,1.822189 -2.718864,4.019085 -3.351879,6.449392 -2.141132,8.220365 3.339124,16.982666 11.766717,18.813629 2.354064,0.51144 3.111831,0.53447 6.359799,0.193305 z"
       id="path84"
       inkscape:connector-curvature="0" />
    <path
       style="fill:#1470a7;stroke-width:0.31999999"
       d="M 62.24,99.630118 C 54.052838,98.658 47.502922,94.687299 43.164797,88.066323 40.350176,83.770566 39.225968,79.826064 39.224208,74.24 c -0.0013,-4.056963 0.66401,-7.537997 1.895952,-9.920307 0.417539,-0.807434 0.593613,-0.883533 1.70072,-0.735037 1.556723,0.2088 3.065501,-0.531766 3.912074,-1.920192 0.761785,-1.249366 0.784617,-2.057709 0.106019,-3.75369 -0.509642,-1.273718 -0.504397,-1.319958 0.24,-2.115564 2.204723,-2.3564 7.366918,-4.994368 11.801027,-6.030525 2.744259,-0.641277 8.004794,-0.745584 10.301248,-0.204256 0.825686,0.19463 1.724554,0.268185 1.997482,0.163453 C 72.404643,49.253456 74.206976,39.358307 74.465299,31.68 74.698176,24.757939 73.905184,16.57856 72.437546,10.764601 72.177168,9.7331309 72.029632,8.8237024 72.109686,8.7436483 72.189738,8.6635942 73.169808,9.0565024 74.287619,9.6167776 80.614029,12.787739 85.443098,18.17344 87.184288,24 89.523107,31.826412 87.486448,41.673219 81.645533,50.778691 80.74049,52.189574 80,53.556445 80,53.816186 80,54.431411 81.335626,55.68 81.993734,55.68 c 0.628516,0 1.709668,-1.353344 4.729332,-5.92 4.823427,-7.294499 8.865382,-17.244038 11.017372,-27.12 0.105466,-0.484 0.324596,-0.88 0.486954,-0.88 0.485712,0 3.124538,3.625993 4.465718,6.136315 3.39096,6.346962 3.79433,13.46117 1.12545,19.849576 -2.14671,5.138512 -7.276262,11.078535 -12.883293,14.918861 C 89.32087,63.770477 88,64.786026 88,64.92153 c 0,0.135504 0.381907,1.315593 0.848678,2.622422 0.735911,2.060326 0.852845,2.907552 0.88,6.376048 0.02787,3.559107 -0.06903,4.317443 -0.879081,6.88 -2.273616,7.192445 -6.026522,11.927462 -12.528464,15.807098 -2.669168,1.592662 -5.308349,2.45599 -8.875114,2.903225 C 64.848,99.836086 64.116426,99.852922 62.24,99.630118 Z M 68,89.922259 c 5.648966,-0.923939 10.713312,-6.023254 12.016406,-12.099373 0.463268,-2.160128 0.287981,-7.888044 -0.25807,-8.433206 -0.432438,-0.431734 -0.32505,-0.45297 -5.518336,1.091264 -2.511862,0.746906 -6.574586,1.5204 -10.345805,1.969715 -1.113232,0.132634 -1.510525,0.07833 -1.419725,-0.194073 0.06934,-0.208032 1.556957,-1.283645 3.305805,-2.390253 3.828752,-2.422688 8.767197,-6.125187 9.238506,-6.926381 0.274109,-0.465965 0.192637,-0.701981 -0.414231,-1.2 C 74.18905,61.398979 73.741235,61.12 73.609402,61.12 c -0.131831,0 -1.375879,0.95449 -2.764548,2.121091 -2.846115,2.390976 -8.618691,6.305597 -9.061017,6.144647 C 61.624013,69.327581 62.356387,67.912 63.411341,66.24 66.369923,61.550925 67.600106,59.230317 67.401555,58.712899 67.26151,58.347946 66.610173,58.24 64.548125,58.24 c -6.416685,0 -11.348432,3.157107 -14.372093,9.200438 -1.235997,2.470359 -1.330554,2.853146 -1.467955,5.942602 -0.228723,5.142768 1.119193,8.752512 4.546489,12.17559 3.788845,3.78418 8.95,5.311527 14.745434,4.363629 z"
       id="path82"
       inkscape:connector-curvature="0" />
    <path
       style="fill:#05446f;stroke-width:0.31999999"
       d="M 59.059427,98.991882 C 46.492787,96.298442 37.923328,84.320467 39.381555,71.487104 c 0.341322,-3.003859 1.769767,-7.78775 2.340842,-7.839526 0.196681,-0.01782 0.813443,-0.0078 1.370582,0.02218 C 46.055638,63.829488 48.305472,60.413603 46.88,57.92 46.628474,57.48 46.417574,56.956566 46.411341,56.756816 46.405101,56.557066 47.3,55.653485 48.4,54.748854 c 3.426189,-2.817664 8.549165,-4.887491 13.47569,-5.444563 2.473158,-0.279654 3.729772,-0.20367 9.491836,0.573962 2.827636,0.381609 6.805476,2.402051 8.881597,4.511181 C 81.121072,55.275245 81.985626,56 82.170352,56 c 0.839024,0 6.724221,-8.887584 8.997686,-13.587933 2.753133,-5.692061 5.853296,-14.630119 6.580455,-18.972067 0.125267,-0.748 0.334003,-1.36 0.463853,-1.36 0.687462,0 3.846374,4.591288 5.143724,7.476095 3.44767,7.666267 2.53593,15.696235 -2.65731,23.403905 -1.821966,2.704112 -6.622011,7.361104 -9.729973,9.44 -1.447165,0.968 -2.709481,1.988723 -2.805145,2.268272 -0.09566,0.279549 0.221248,1.647549 0.704249,3.04 0.765639,2.207258 0.879079,3.023869 0.885149,6.371728 0.0061,3.348787 -0.109738,4.207392 -0.905306,6.712061 -1.729974,5.446432 -4.318579,9.494822 -8.133849,12.720752 -2.007741,1.697609 -5.264215,3.701309 -7.300384,4.491907 -3.810743,1.479626 -10.053363,1.908944 -14.354074,0.987162 z M 71.421715,88.857574 c 3.151127,-1.515628 5.489741,-3.824976 7.040957,-6.952841 1.520592,-3.066109 1.839923,-4.535303 1.849504,-8.509283 0.0064,-2.656944 -0.09662,-3.373533 -0.568893,-3.956762 L 79.16657,68.726474 76.174259,69.721149 C 72.96431,70.788173 68.010029,71.83344 64.64,72.154682 c -2.496125,0.237939 -2.603309,0.356329 3.04,-3.35786 2.112,-1.390028 4.676832,-3.190998 5.699626,-4.002156 2.513318,-1.993261 2.420076,-2.503479 -0.739626,-4.047296 -1.32,-0.644944 -2.832,-1.275344 -3.36,-1.400887 -0.528,-0.125542 -1.244042,-0.425859 -1.591203,-0.667369 -0.877978,-0.610791 -5.372887,-0.568282 -7.550717,0.07141 -4.481072,1.316211 -8.010861,4.339993 -10.078778,8.633948 -4.200636,8.722474 0.132628,18.875104 9.453309,22.14865 1.826083,0.641344 2.551405,0.71745 5.794074,0.607971 3.476809,-0.117385 3.856038,-0.196985 6.11503,-1.283517 z"
       id="path80"
       inkscape:connector-curvature="0" />
    <path
       style="fill:#14354a;stroke-width:0.31999999"
       d="M 60,99.045478 C 52.039306,97.564355 45.293018,92.439962 41.877686,85.28 40.241603,81.850083 39.667939,79.536173 39.454368,75.505331 39.262752,71.888909 39.791834,68.255818 40.935181,65.336893 L 41.521517,63.84 43.318211,63.676394 c 1.459687,-0.132919 1.981693,-0.348605 2.78297,-1.149882 1.248077,-1.248077 1.563904,-3.088326 0.787645,-4.589446 -0.535508,-1.035559 -0.531488,-1.057575 0.364851,-1.998615 2.580166,-2.708832 8.368326,-5.599539 12.734653,-6.359901 2.757891,-0.480268 8.925561,-0.218729 11.53167,0.488992 3.865571,1.049748 8.841827,4.096362 12.103014,7.409834 1.834551,1.863962 4.008532,5.539766 4.354112,7.36201 0.166256,0.876672 0.621492,2.378448 1.011636,3.337283 0.961036,2.361901 1.064342,8.45103 0.192444,11.343331 -1.826016,6.057341 -3.863897,9.590864 -7.50382,13.011027 C 75.709901,98.138221 67.838202,100.50381 60,99.045478 Z m 8.130218,-8.978208 c 2.470489,-0.582336 5.317718,-2.051056 7.216889,-3.722774 1.585581,-1.395686 3.712103,-5.039741 4.457117,-7.637814 0.602106,-2.099722 0.744502,-7.807181 0.223213,-8.946682 -0.707795,-1.547187 -2.762906,-4.78247 -4.210685,-6.62872 -1.802397,-2.29847 -4.934864,-4.007872 -8.801107,-4.8028 -2.398455,-0.493139 -2.775319,-0.493741 -5.239082,-0.0084 -1.460102,0.287654 -3.465139,0.916272 -4.455645,1.396922 -2.195312,1.065296 -5.941008,4.743494 -7.155859,7.026905 -6.425331,12.076947 4.65417,26.460938 17.965159,23.323315 z"
       id="path78"
       inkscape:connector-curvature="0" />
    <path
       style="fill:#092336;stroke-width:0.31999999"
       d="M 60.972454,98.863971 C 52.772589,97.583702 45.813802,92.540365 42.265795,85.306442 41.568083,83.883901 40.761696,81.79217 40.473827,80.658157 39.311882,76.080874 39.548208,70.3408 41.074026,66.08 l 0.687561,-1.92 1.848368,-0.198694 c 3.469504,-0.372967 4.649802,-2.561357 3.60353,-6.681306 -0.173898,-0.684774 0.04095,-0.996029 1.491677,-2.161008 5.396643,-4.33367 12.494451,-6.199386 19.840912,-5.215334 4.5363,0.607628 9.344201,2.762886 11.7567,5.270217 0.606525,0.630368 1.278285,1.146125 1.492804,1.146125 0.589225,0 2.914313,2.776454 4.287644,5.12 1.082266,1.846851 2.005104,4.652576 2.894436,8.8 0.883808,4.12167 -0.145469,10.688035 -2.366749,15.098906 -3.101722,6.159196 -9.314797,11.260128 -15.706183,12.894771 -2.957651,0.756438 -7.342252,1.034685 -9.932272,0.630294 z m 7.273885,-8.454141 c 5.812074,-1.231603 10.629779,-5.968467 12.245751,-12.040259 0.540118,-2.029427 0.608092,-6.33192 0.127382,-8.062982 -0.185328,-0.667373 -0.652525,-1.705559 -1.038214,-2.307079 -3.734432,-5.824163 -4.334055,-6.539942 -6.468026,-7.721001 -2.618666,-1.449315 -6.561507,-2.679488 -8.56975,-2.673779 -2.311277,0.0066 -5.312567,0.768915 -7.627248,1.937363 -6.703252,3.383792 -10.351428,11.613357 -8.425703,19.00672 1.330851,5.109485 5.449763,9.527795 10.549469,11.316297 3.17663,1.114064 5.789869,1.268685 9.206339,0.54472 z"
       id="path76"
       inkscape:connector-curvature="0" />
  </g>
</svg>
