<?xml version="1.0" encoding="UTF-8" standalone="no"?>
<!-- Created with Inkscape (http://www.inkscape.org/) -->

<svg
   xmlns:dc="http://purl.org/dc/elements/1.1/"
   xmlns:cc="http://creativecommons.org/ns#"
   xmlns:rdf="http://www.w3.org/1999/02/22-rdf-syntax-ns#"
   xmlns:svg="http://www.w3.org/2000/svg"
   xmlns="http://www.w3.org/2000/svg"
   xmlns:sodipodi="http://sodipodi.sourceforge.net/DTD/sodipodi-0.dtd"
   xmlns:inkscape="http://www.inkscape.org/namespaces/inkscape"
   version="1.1"
   id="svg3767"
   width="391.35999"
   height="143.67999"
   viewBox="0 0 391.35999 143.67999"
   sodipodi:docname="calliope-logo.svg"
   inkscape:version="0.92.3 (2405546, 2018-03-11)">
  <metadata
     id="metadata3773">
    <rdf:RDF>
      <cc:Work
         rdf:about="">
        <dc:format>image/svg+xml</dc:format>
        <dc:type
           rdf:resource="http://purl.org/dc/dcmitype/StillImage" />
        <dc:title></dc:title>
      </cc:Work>
    </rdf:RDF>
  </metadata>
  <defs
     id="defs3771" />
  <sodipodi:namedview
     pagecolor="#ffffff"
     bordercolor="#666666"
     borderopacity="1"
     objecttolerance="10"
     gridtolerance="10"
     guidetolerance="10"
     inkscape:pageopacity="0"
     inkscape:pageshadow="2"
     inkscape:window-width="3840"
     inkscape:window-height="2049"
     id="namedview3769"
     showgrid="false"
     inkscape:zoom="6.6182856"
     inkscape:cx="230.22454"
     inkscape:cy="86.103606"
     inkscape:window-x="0"
     inkscape:window-y="55"
     inkscape:window-maximized="1"
     inkscape:current-layer="g3846" />
  <g
     id="g3846"
     transform="translate(4.2736571,-0.96157249)">
    <path
       style="fill:#8cccdb;stroke-width:0.31999999"
       d="M 303.99999,99.199993 V 74.559995 h 1.41457 c 1.64374,0 1.61112,-0.077 1.96111,4.629708 0.20994,2.823395 0.22124,2.854384 0.70012,1.92 2.37743,-4.638848 7.70434,-7.544835 13.8442,-7.552431 6.73994,-0.0084 11.9025,3.173843 14.86496,9.162722 1.50771,3.048006 2.08557,5.752208 2.08557,9.76 0,3.864982 -0.55642,6.602681 -1.92454,9.469396 -2.91588,6.10963 -8.24397,9.46172 -15.02599,9.45333 -6.06758,-0.008 -11.12313,-2.7114 -13.54193,-7.24273 -0.47939,-0.89807 -0.51327,-0.29426 -0.52526,9.36 l -0.0128,10.32 H 305.92 304 Z m 19.68384,8.612207 c 4.88688,-0.90339 8.60864,-4.32031 10.42621,-9.572207 0.58416,-1.687904 0.71984,-2.773708 0.71984,-5.759999 0,-4.12304 -0.62906,-6.567715 -2.40864,-9.3608 -6.51555,-10.22605 -21.53549,-7.040002 -24.11108,5.114461 -2.20184,10.390741 3.53847,19.178895 12.99105,19.888695 0.27568,0.0207 1.34787,-0.11886 2.38262,-0.31015 z M 99.039997,119.48174 c -4.698246,-0.2492 -12.649622,-1.15788 -16.799999,-1.9199 C 54.871791,112.53696 36.17845,98.547456 33.894054,81.381255 33.186239,76.062363 34.692028,70.33061 37.901906,66.125442 c 0.625952,-0.820042 1.138093,-1.65033 1.138093,-1.845088 0,-0.906096 -12.46235,1.557881 -23.439999,4.634406 -1.54,0.43159 -2.8,0.716317 -2.8,0.632726 0,-0.574025 17.776221,-8.408159 24.120658,-10.630185 3.100115,-1.085756 4.099747,-1.600015 5.423287,-2.78999 1.927385,-1.732886 3.389926,-2.521942 5.873526,-3.168838 3.239804,-0.843862 6.468947,-0.441094 8.750918,1.091498 l 1.313872,0.882406 2.689142,-1.079747 c 4.790362,-1.92343 9.699066,-2.463293 14.299715,-1.572694 l 2.15112,0.416419 0.495782,-1.628179 c 0.272682,-0.895498 0.881872,-3.788179 1.353754,-6.428179 0.761846,-4.262221 0.859648,-5.624595 0.872944,-12.159999 0.009,-4.423324 -0.15073,-8.509133 -0.400307,-10.24 -0.450691,-3.125579 -1.84849,-10.313446 -2.167066,-11.14364 -0.277808,-0.72396 3.83577,1.31493 6.832253,3.386397 11.001446,7.605294 13.515673,20.282222 6.813264,34.353005 -0.847719,1.779667 -2.284733,4.363318 -3.193367,5.741446 l -1.652057,2.505683 0.814736,0.814736 c 1.094912,1.094915 1.430016,0.845817 4.101465,-3.048771 5.811696,-8.472617 10.054421,-18.327458 12.111911,-28.133071 l 0.69499,-3.312203 2.03087,2.618209 c 2.30874,2.976443 4.60846,7.396202 5.4417,10.458208 0.39405,1.44808 0.56158,3.19801 0.55142,5.76 -0.013,3.277181 -0.12715,4.012765 -1.04296,6.72 -1.58294,4.67935 -3.46847,7.572613 -7.72157,11.84845 -2.024,2.034816 -4.840275,4.48534 -6.258383,5.445609 l -2.578384,1.745939 0.48016,1.6 c 0.264086,0.88 0.515817,1.651456 0.559395,1.714349 0.157504,0.227293 3.668041,-1.948749 5.946902,-3.686246 1.28167,-0.977194 4.09431,-3.523117 6.25031,-5.657606 2.23218,-2.209914 3.92,-3.657517 3.92,-3.362099 0,0.820659 -1.56927,5.324668 -2.76342,7.931398 -2.35393,5.138412 -7.28728,11.461292 -11.251203,14.420203 -1.52616,1.139219 -1.974029,1.673943 -2.144189,2.56 -0.37128,1.933347 -2.118627,5.762355 -3.727005,8.167078 -1.792166,2.679513 -4.891379,5.694816 -7.437718,7.236345 -0.978074,0.592115 -1.7824,1.176163 -1.787392,1.297873 -0.01453,0.35442 3.387418,2.87144 7.640192,5.65279 5.059568,3.30899 13.801275,7.73733 20.510735,10.39025 2.904,1.14824 5.69409,2.19065 6.2002,2.31646 0.67516,0.16785 0.79931,0.29642 0.46621,0.48283 -0.50139,0.28059 -14.79678,0.60639 -18.346413,0.41812 z M 77.712817,91.612758 c 0.953424,-0.451043 2.686077,-1.7239 3.850339,-2.828572 2.381482,-2.259587 2.547299,-1.944605 -1.403158,-2.665411 -3.332867,-0.608122 -6.373753,-2.36439 -9.439753,-5.451942 l -2.720247,-2.73937 2.56,-0.235539 c 8.007811,-0.736781 10.740854,-1.143542 14.518768,-2.160825 1.377251,-0.370858 1.383475,-0.379127 1.168029,-1.551975 -0.11913,-0.648521 -0.322196,-1.288732 -0.451258,-1.422687 -0.129062,-0.133959 -1.089856,0.05169 -2.135098,0.412547 -2.933004,1.012592 -7.711689,2.152438 -10.540441,2.514185 -6.189763,0.791562 -6.728454,0.737283 -4.855846,-0.489283 0.558717,-0.365962 2.887846,-1.892253 5.175846,-3.391757 2.288,-1.499503 5.063219,-3.451321 6.167155,-4.337369 l 2.007155,-1.610995 -0.919155,-0.654496 -0.919155,-0.654496 -0.928,0.977094 c -2.00048,2.106314 -7.944288,6.409805 -10.973673,7.945264 -1.773392,0.898854 -1.746493,0.81719 1.356595,-4.118643 1.282313,-2.03967 2.787721,-4.530384 3.345353,-5.534915 l 1.013872,-1.826425 -1.195072,-0.225645 c -2.12128,-0.400522 -6.070316,0.376659 -8.68839,1.709894 -1.305321,0.66473 -2.523725,1.452893 -2.707561,1.751475 -0.70745,1.149021 1.200739,7.782592 3.845164,13.367215 1.815594,3.834259 5.377696,9.424969 8.012359,12.575375 1.739891,2.08048 1.80759,2.089504 4.856172,0.647296 z M 51.839999,65.645736 c 0.951724,-0.698173 1.603772,-2.441734 1.370163,-3.663785 -0.09224,-0.482502 -0.568029,-1.30583 -1.057319,-1.829616 -0.755788,-0.809072 -1.128579,-0.952339 -2.478076,-0.952339 -1.976771,0 -3.126234,0.819993 -3.596237,2.565456 -0.936755,3.478847 2.840698,6.022921 5.761469,3.880284 z M 138.88,111.02505 c -8.74599,-2.2583 -15.31939,-8.86744 -17.98163,-18.079405 -0.63856,-2.209559 -0.73586,-3.263872 -0.73703,-7.985651 -0.002,-6.426703 0.37679,-8.247519 2.72642,-13.119999 2.59768,-5.386857 6.00125,-8.898479 11.03224,-11.382492 4.1278,-2.03807 7.10889,-2.635235 12.28829,-2.461568 3.57061,0.119725 4.81121,0.296848 6.91171,0.9868 2.86346,0.940563 5.9893,2.674742 7.9572,4.414563 l 1.30902,1.157302 -0.92635,1.336711 c -0.50948,0.73519 -1.03601,1.404489 -1.17004,1.487328 -0.13404,0.08284 -1.15408,-0.536858 -2.26677,-1.377104 -5.15475,-3.892624 -11.72861,-5.211389 -17.99234,-3.609399 -3.76527,0.962996 -6.05523,2.321296 -9.18284,5.446835 -2.19131,2.189866 -3.02307,3.301568 -4.08186,5.455661 -1.88008,3.824966 -2.62982,7.040191 -2.64558,11.345362 -0.0164,4.487053 0.63884,7.453846 2.50905,11.359999 1.2369,2.583402 1.86967,3.450413 4.21301,5.772507 1.71781,1.70225 3.50385,3.12288 4.73703,3.76786 7.30008,3.81813 17.06442,2.77404 22.86972,-2.44542 0.86663,-0.77917 1.61429,-1.36229 1.66149,-1.29581 0.0472,0.0665 0.55991,0.73568 1.13937,1.48711 0.57946,0.75144 0.98017,1.55751 0.89047,1.79127 -0.26815,0.69877 -3.9684,3.32579 -6.15318,4.36849 -3.37265,1.60962 -6.43783,2.23641 -10.83859,2.21637 -2.73829,-0.0125 -4.57013,-0.1987 -6.26881,-0.63732 z m 222.87999,0.33286 c -7.31507,-0.79788 -12.99635,-5.89171 -14.71872,-13.196774 -0.69597,-2.951891 -0.62736,-8.847545 0.13779,-11.83927 2.04365,-7.990646 7.88157,-12.735654 15.70093,-12.761615 3.30413,-0.01098 5.21539,0.395606 7.65952,1.629408 4.79597,2.420988 8.00275,8.282057 8.01574,14.650335 l 0.005,2.32 h -14.08 -14.07999 v 1.388812 c 0,2.125287 1.17331,6.242272 2.32585,8.161184 2.75722,4.5905 8.07066,6.95188 13.83776,6.14975 2.72115,-0.37848 5.20602,-1.2487 7.22912,-2.53172 l 1.44147,-0.91416 0.83975,1.5748 0.83974,1.57479 -1.48122,0.93937 c -3.50054,2.21996 -8.98857,3.36598 -13.67248,2.85509 z m 12.95526,-22.637916 c -0.0186,-0.940615 -1.08739,-4.522 -1.72524,-5.780736 -0.99364,-1.960883 -2.98951,-3.951039 -4.91456,-4.900492 -2.05328,-1.012704 -7.37748,-1.089639 -9.83453,-0.142109 -2.01123,0.775613 -4.77501,3.359075 -5.84391,5.462684 -0.763,1.501555 -1.6647,4.30424 -1.67321,5.200653 -0.003,0.312957 2.60749,0.4 11.99619,0.4 6.6,0 11.99786,-0.108 11.99526,-0.24 z M 176.72021,110.86555 c -5.44715,-1.4668 -8.38467,-4.92721 -8.65098,-10.19092 -0.10758,-2.126253 -0.002,-2.937821 0.58559,-4.495721 1.31311,-3.482275 4.61092,-5.947254 9.4854,-7.089942 1.68095,-0.394052 3.31483,-0.47801 7.13978,-0.366887 4.23172,0.122944 5.33386,0.266554 7.50627,0.978067 1.40045,0.458682 2.6091,0.771133 2.6859,0.694336 0.35282,-0.352819 -0.60377,-6.266134 -1.22876,-7.595734 -0.95409,-2.029743 -3.0036,-3.95039 -5.1076,-4.786457 -1.48232,-0.589033 -2.41046,-0.706035 -5.61581,-0.707936 -4.04023,-0.0022 -5.76114,0.353005 -9.31091,1.92288 l -1.72363,0.762269 -0.80273,-1.584115 C 171.24122,77.534123 170.88,76.754951 170.88,76.673892 c 0,-0.306112 5.36011,-2.198393 7.47818,-2.640025 2.67249,-0.557229 8.19218,-0.60152 10.32716,-0.08286 3.94504,0.958377 7.24178,3.397856 8.7178,6.450889 1.54772,3.201325 1.62901,4.069373 1.63306,17.438101 l 0.004,12.559993 h -1.44 -1.44 l -0.003,-1.36 c -0.002,-0.748 -0.093,-2.11077 -0.20319,-3.02838 l -0.20042,-1.66838 -0.8799,1.21466 c -1.76004,2.42968 -4.85202,4.40471 -8.35561,5.33722 -2.18379,0.58123 -7.59016,0.56492 -9.79788,-0.0296 z m 8.97793,-3.18289 c 2.67654,-0.69715 4.77271,-1.864 6.56086,-3.65215 2.20253,-2.20253 2.97712,-3.95433 3.17896,-7.189525 l 0.1651,-2.646444 -1.61989,-0.696861 c -2.77119,-1.192134 -5.72449,-1.710509 -9.66317,-1.696118 -5.74213,0.02099 -8.65017,1.058236 -10.93992,3.902118 -1.69914,2.110332 -1.74801,6.18353 -0.10399,8.66781 2.03331,3.07253 7.62046,4.56182 12.42205,3.31117 z m 86.04771,3.17921 c -6.06227,-1.63174 -10.77723,-6.49531 -12.37894,-12.769109 -0.73165,-2.865824 -0.64598,-8.411638 0.17574,-11.376921 1.77105,-6.391033 6.33181,-11.068575 12.31064,-12.625864 2.483,-0.64674 7.22647,-0.633687 9.44862,0.02598 6.56962,1.950304 11.19019,7.068278 12.59472,13.950527 2.18301,10.696866 -3.12789,20.292357 -12.63115,22.821387 -2.20627,0.58713 -7.29329,0.57324 -9.51963,-0.026 z m 7.67839,-3.06168 c 6.53695,-1.38699 10.85241,-7.33787 10.87665,-14.998558 0.017,-5.359238 -1.23691,-8.586003 -4.67545,-12.031999 -2.98413,-2.990608 -4.84446,-3.761494 -9.14545,-3.789702 -2.78224,-0.01824 -3.22454,0.06748 -5.21651,1.010979 -2.67809,1.268489 -5.47968,4.003449 -6.70455,6.5451 -2.39922,4.978461 -2.41854,11.327004 -0.0487,16.00366 1.00317,1.97966 3.63308,4.83604 5.41304,5.87916 2.65557,1.55627 6.22841,2.07573 9.50097,1.38136 z M 211.19999,84.639994 V 58.879996 h 1.92 1.92 v 25.759998 25.759996 h -1.92 -1.92 z m 16.64,0 V 58.879996 h 1.92 1.92 v 25.759998 25.759996 h -1.92 -1.92 z m 16.96,7.84 V 74.559995 h 1.92 1.92 v 17.919999 17.919996 h -1.92 -1.92 z m 0.7642,-27.833621 c -1.0181,-0.41136 -2.0442,-1.894208 -2.0442,-2.954147 0,-0.613894 0.32546,-1.266912 0.93539,-1.876845 1.93969,-1.939695 5.14461,-0.823897 5.14461,1.791108 0,1.489964 -0.43315,2.270105 -1.59359,2.870195 -1.04249,0.539091 -1.45672,0.567871 -2.44221,0.169689 z"
       id="path3860"
       inkscape:connector-curvature="0" />
    <path
       style="fill:#9ba0a4;stroke-width:0.31999999"
       d="M 303.99999,99.199993 V 74.559995 h 1.39813 c 1.36702,0 1.40255,0.02669 1.59648,1.2 0.10909,0.66 0.20152,1.776 0.20539,2.48 0.004,0.704 0.0948,1.810502 0.20197,2.458892 l 0.19492,1.178896 1.2945,-1.938534 c 1.49053,-2.232083 4.17892,-4.354477 6.87669,-5.428912 1.58464,-0.63111 2.41831,-0.730995 6.17605,-0.739968 l 4.34413,-0.01037 2.72009,1.347869 c 4.33645,2.148784 7.25376,5.517808 8.94685,10.33213 0.62842,1.786919 0.73386,2.733799 0.74816,6.72 0.0189,5.276585 -0.2607,6.637641 -2.10393,10.240002 -1.91517,3.74306 -5.02205,6.58137 -8.91943,8.14844 -1.85219,0.74473 -7.18713,1.02568 -9.67383,0.50945 -3.72526,-0.77336 -7.20195,-3.17683 -9.25856,-6.40054 l -0.90761,-1.42266 v 10.30265 10.30265 h -1.92 -1.92 z m 20.65277,8.463357 c 1.04899,-0.27315 2.48323,-0.83436 3.18723,-1.24713 1.75485,-1.0289 4.09232,-3.46481 5.09811,-5.31274 1.1401,-2.09478 2.10189,-6.040671 2.10189,-8.623486 0,-2.586861 -0.96224,-6.529549 -2.10681,-8.632509 -2.68058,-4.925116 -8.25549,-7.725205 -13.46833,-6.7647 -7.16872,1.32089 -11.62486,7.223078 -11.62486,15.397209 0,7.853716 4.05028,13.616486 10.70674,15.233636 2.23659,0.54337 3.87819,0.52985 6.10603,-0.0503 z m -184.97821,3.52923 c -9.65943,-2.12284 -16.99051,-9.77465 -19.09637,-19.931828 -0.90803,-4.379696 -0.68546,-10.834217 0.51295,-14.875666 2.59445,-8.749356 8.5868,-15.002114 16.82887,-17.560204 2.09832,-0.651254 3.04358,-0.743689 7.52,-0.735376 4.75695,0.0088 5.30152,0.07255 7.68,0.898487 2.78779,0.968076 5.9996,2.766796 7.97705,4.467407 l 1.25706,1.081072 -1.0713,1.491763 c -0.58922,0.820468 -1.12093,1.49176 -1.18158,1.49176 -0.0606,0 -0.89196,-0.636694 -1.84736,-1.414873 -3.5598,-2.899501 -8.04264,-4.416269 -12.97387,-4.389718 -8.42858,0.04538 -15.21161,4.484476 -18.89336,12.364591 -1.80262,3.858195 -2.34527,6.392438 -2.32966,10.879999 0.0208,5.9888 1.52213,10.568739 4.89784,14.941474 3.9674,5.139192 9.75697,7.963292 16.32518,7.963292 4.86945,0 9.07251,-1.44226 12.84864,-4.40895 l 1.94081,-1.5248 0.78109,0.95449 c 1.5244,1.86281 1.52196,1.89605 -0.25635,3.4949 -2.10365,1.89137 -6.81552,4.20522 -9.81512,4.81989 -2.82995,0.57992 -8.44843,0.57601 -11.10452,-0.008 z m 36.94915,-0.4168 c -2.39867,-0.62626 -5.11593,-2.24681 -6.20509,-3.70066 -1.82142,-2.43129 -2.23565,-3.70582 -2.24745,-6.91513 -0.009,-2.584125 0.1051,-3.27623 0.76417,-4.615328 1.62212,-3.295859 4.89297,-5.485145 9.62851,-6.444691 4.72943,-0.958304 12.01998,-0.367356 16.44775,1.3332 0.58012,0.222807 0.6013,0.104483 0.41154,-2.299142 -0.25342,-3.209856 -0.91959,-5.434201 -2.12649,-7.100271 -3.16133,-4.364093 -11.50725,-5.191936 -18.97953,-1.882608 l -1.84289,0.816179 -0.78693,-1.552934 c -0.92006,-1.815648 -0.92656,-1.806266 2.07271,-2.987325 3.5033,-1.379539 6.96385,-1.922515 11.16389,-1.751658 7.02486,0.28577 10.91312,2.783549 13.21322,8.488035 0.72599,1.800547 0.74242,2.095296 0.83809,15.036546 l 0.0976,13.199997 h -1.26217 c -1.43325,0 -1.64877,-0.30568 -1.65416,-2.34617 -0.002,-0.7336 -0.0922,-1.87055 -0.20069,-2.52655 l -0.19716,-1.19273 -1.04497,1.36855 c -1.81071,2.37141 -4.87884,4.2688 -8.37551,5.17957 -2.42305,0.63112 -7.08421,0.57984 -9.71444,-0.10688 z m 10.85272,-3.54486 c 5.28059,-2.12372 8.21685,-6.27725 7.97945,-11.287442 l -0.0959,-2.023485 -2.46591,-0.862812 c -8.24522,-2.884979 -17.82431,-1.283504 -20.0569,3.353203 -2.21497,4.600086 -0.0934,9.488346 4.81391,11.091456 2.69349,0.87991 7.27813,0.7535 9.82532,-0.27092 z m 84.4537,3.65117 c -6.25321,-1.58104 -11.05198,-6.58892 -12.59399,-13.142772 -0.78377,-3.331152 -0.50011,-9.123398 0.60045,-12.261193 1.8398,-5.245471 5.67166,-9.185657 10.67193,-10.973634 2.337,-0.835658 7.22092,-1.134752 9.79693,-0.599971 6.28411,1.304576 11.438,6.421852 13.25273,13.158591 0.76201,2.828774 0.74872,8.72319 -0.0256,11.336882 -1.73132,5.844297 -5.64444,10.159087 -10.91261,12.032767 -2.49967,0.88903 -8.12437,1.12326 -10.78988,0.44933 z m 10.10298,-3.93318 c 3.65874,-1.71213 6.17609,-4.59859 7.59526,-8.708917 1.08799,-3.151132 1.03455,-8.253126 -0.12048,-11.501951 -1.67058,-4.698925 -4.89936,-7.999606 -9.09215,-9.294627 -6.29194,-1.943382 -12.96307,1.055252 -15.92418,7.157811 -2.75895,5.685942 -2.23672,13.343772 1.23225,18.069464 3.70017,5.04063 10.73603,6.88627 16.3093,4.27822 z m 77.09473,3.91859 c -7.88573,-2.12393 -12.56784,-8.93985 -12.56784,-18.295526 0,-6.149385 1.74096,-11.061986 5.11623,-14.436744 3.19939,-3.198922 6.6063,-4.535235 11.56249,-4.535235 7.57962,0 12.75245,4.138291 14.70221,11.761871 0.34048,1.331277 0.61907,3.405469 0.61907,4.609315 v 2.188813 h -14.08 -14.08 v 1.424249 c 0,5.130672 2.98141,10.575907 6.9831,12.753897 4.64208,2.52654 11.28471,2.20885 16.1546,-0.77261 0.84576,-0.51778 1.64873,-0.8728 1.78444,-0.78894 0.13568,0.0839 0.51101,0.73855 0.83399,1.45485 0.57318,1.27109 0.57261,1.31375 -0.0243,1.77612 -1.27408,0.98674 -4.69587,2.44368 -6.77309,2.88388 -2.72506,0.57748 -8.04403,0.56503 -10.23078,-0.0239 z m 15.42166,-23.249708 c -1.14777,-6.793631 -5.26412,-10.576162 -11.5095,-10.576162 -4.1065,0 -7.41782,1.585657 -9.64378,4.618019 -1.16224,1.583257 -2.65718,5.268361 -2.66947,6.580345 l -0.007,0.72 H 362.74787 374.776 Z M 211.19999,84.639994 V 58.879996 h 1.92 1.92 v 25.759998 25.759996 h -1.92 -1.92 z m 16.64,0 V 58.879996 h 1.92 1.92 v 25.759998 25.759996 h -1.92 -1.92 z m 16.96,7.84 V 74.559995 h 1.92 1.92 v 17.919999 17.919996 h -1.92 -1.92 z M 67.73716,102.70505 C 58.595819,101.6305 50.587656,95.550569 47.170476,87.090487 44.690357,80.950327 44.648543,73.470008 47.062968,67.857522 l 0.662144,-1.539197 1.70266,0.04084 c 1.93455,0.0464 2.840867,-0.530989 3.581811,-2.281859 0.464844,-1.098435 0.3179,-2.319942 -0.415504,-3.453964 -0.38634,-0.597373 -0.287879,-0.788327 1.09062,-2.115082 4.981844,-4.794848 13.279795,-7.409862 20.235299,-6.376943 1.32,0.196025 2.684474,0.390672 3.03216,0.432547 0.539059,0.06493 0.738419,-0.324455 1.353642,-2.643862 0.805376,-3.036298 1.873763,-10.169856 2.180636,-14.559999 C 80.845883,30.2178 79.771704,19.636984 78.295931,13.783202 l -0.714349,-2.833527 0.709216,0.269644 c 3.472995,1.320429 8.192374,4.544766 10.71431,7.320141 2.298454,2.529434 4.57145,6.913856 5.236381,10.100543 0.596627,2.859341 0.607437,7.749852 0.02387,10.799874 -0.932419,4.873309 -3.369072,10.61712 -6.504048,15.331686 l -1.476698,2.220748 1.012333,1.012333 c 0.991645,0.991645 1.022605,0.999491 1.514887,0.383847 1.777743,-2.223236 6.572684,-9.808781 7.982665,-12.628489 2.836182,-5.671859 5.547932,-13.518303 6.940612,-20.082677 l 0.42489,-2.002678 1.50707,1.868699 c 2.89754,3.592794 5.12442,7.924996 6.04045,11.751152 0.57332,2.394679 0.48638,7.625075 -0.16729,10.065504 -1.21251,4.526742 -3.7755,8.931119 -7.48826,12.86821 -2.09781,2.224569 -6.138179,5.546569 -8.409939,6.914675 l -1.157968,0.697353 0.517968,1.75928 c 0.28488,0.967603 0.648272,1.759549 0.807536,1.759878 0.159267,3.2e-4 1.671267,-0.925744 3.36,-2.057942 3.526283,-2.364169 7.026563,-5.392611 10.149313,-8.781193 1.19605,-1.297856 2.22507,-2.208412 2.28672,-2.023459 0.21347,0.640416 -1.87044,6.246268 -3.50468,9.427791 -2.67152,5.200893 -7.09149,10.596585 -10.950617,13.368 -1.206365,0.866348 -1.481885,1.274687 -1.798327,2.665251 -0.584995,2.570662 -2.968972,7.192386 -4.928745,9.555167 -5.545171,6.685477 -14.194809,10.190177 -22.686073,9.192047 z m 7.291651,-10.075588 c 1.035801,-0.269792 2.5884,-0.874307 3.450217,-1.343369 1.589885,-0.865322 5.04097,-3.940707 5.04097,-4.492185 0,-0.165751 -0.916371,-0.386938 -2.036384,-0.491527 -4.011507,-0.374601 -8.649808,-3.013712 -11.821517,-6.726236 l -1.472838,-1.723974 3.722045,-0.222525 c 3.727616,-0.222858 9.725728,-1.120973 12.728694,-1.905907 1.571382,-0.410739 1.599312,-0.439597 1.561504,-1.613475 -0.06068,-1.884045 -0.351011,-1.951671 -3.68336,-0.857939 -4.012432,1.316947 -8.422723,2.212687 -12.118144,2.461219 -3.640752,0.244857 -3.629177,0.216291 1.12,-2.763536 1.76,-1.104298 4.761046,-3.170019 6.668989,-4.590496 l 3.468992,-2.582685 -0.84224,-0.72446 -0.842237,-0.724464 -2.786752,2.348313 c -3.20768,2.703014 -9.401763,6.923779 -10.160835,6.923779 -0.386019,0 0.01683,-0.782704 1.96007,-3.808265 1.158295,-1.803421 2.673773,-4.331584 3.367732,-5.618141 1.448038,-2.684569 1.419475,-2.733593 -1.59266,-2.733593 -6.907635,0 -13.294518,4.865545 -15.238582,11.608793 -0.620614,2.152687 -0.697923,6.242703 -0.156038,8.255116 1.029187,3.822105 4.203536,7.990745 7.416387,9.739397 3.750637,2.041351 8.257312,2.625079 12.245987,1.58616 z M 244.41592,63.665151 c -0.84229,-0.842295 -0.9492,-1.135994 -0.78619,-2.16 0.25561,-1.60577 1.46818,-2.625155 3.12265,-2.625155 1.76702,0 2.84761,1.09288 2.84761,2.88 0,2.797107 -3.13866,3.950569 -5.18407,1.905155 z"
       id="path3858"
       inkscape:connector-curvature="0" />
    <path
       style="fill:#658fa8;stroke-width:0.31999999"
       d="M 304.31999,99.199993 V 74.559995 h 1.23441 1.23442 l 0.20558,1.96694 c 0.11308,1.081818 0.2078,2.557818 0.21049,3.28 0.008,2.025139 0.40213,2.317888 1.20315,0.892666 1.70187,-3.028061 6.14432,-6.04992 9.95701,-6.772979 5.86784,-1.112816 11.08089,0.407866 15.05241,4.390889 7.31287,7.334019 7.33684,21.037439 0.0494,28.246759 -3.36557,3.32951 -6.85773,4.80047 -11.37408,4.79099 -5.71361,-0.012 -10.31386,-2.29778 -13.17509,-6.54647 l -1.07768,-1.60025 v 10.31572 10.31573 h -1.76 -1.76 z m 22.5441,7.734417 c 5.05168,-2.36397 8.16643,-7.877031 8.16643,-14.454416 0,-10.574528 -8.22227,-17.810281 -17.15529,-15.096959 -6.45146,1.959571 -10.07438,7.38869 -10.07438,15.096959 0,4.616466 1.18069,8.182466 3.66043,11.055496 3.79357,4.39523 10.23583,5.81684 15.40281,3.39892 z M 140.16,111.21521 c -4.6506,-0.99577 -8.53561,-3.00048 -11.81171,-6.09498 -5.79279,-5.471677 -8.65152,-12.893347 -8.25852,-21.440236 0.37577,-8.172028 3.05606,-14.316591 8.43699,-19.341781 2.69096,-2.513062 6.70087,-4.717888 10.35324,-5.692675 2.88487,-0.769945 9.91966,-0.769232 12.8,0.0013 2.98607,0.798816 7.01999,2.869703 8.92329,4.580928 l 1.64068,1.475117 -1.02371,1.328556 c -0.56304,0.730708 -1.07009,1.390717 -1.12678,1.466688 -0.0567,0.07597 -0.56891,-0.310726 -1.13828,-0.859324 -2.55398,-2.460832 -7.51966,-4.585034 -11.77575,-5.037376 -4.4381,-0.47169 -10.02375,1.061005 -13.87064,3.806089 -6.24429,4.45584 -9.90625,12.664297 -9.37325,21.010639 0.95271,14.918545 14.0685,24.826195 27.41907,20.712325 2.73482,-0.84271 3.99347,-1.50382 6.55668,-3.44391 1.16742,-0.88362 2.16254,-1.60657 2.21139,-1.60657 0.0488,0 0.54579,0.63633 1.10432,1.41407 l 1.01551,1.41408 -1.68127,1.48207 c -1.93099,1.7022 -5.92463,3.76977 -8.72126,4.51514 -2.64464,0.70485 -9.04253,0.87458 -11.68,0.30985 z m 37.24857,-0.33065 c -3.97805,-0.86547 -6.90496,-3.04243 -8.39579,-6.24457 -0.67555,-1.45101 -0.81998,-2.23752 -0.82271,-4.48 -0.004,-3.403034 0.80865,-5.42999 2.99889,-7.47871 2.77976,-2.600134 5.77285,-3.634131 11.37104,-3.928249 4.05393,-0.212989 7.55364,0.200905 10.74273,1.270492 l 2.21727,0.743642 v -1.847834 c 0,-4.024927 -1.29497,-7.420553 -3.57383,-9.371167 -3.72962,-3.192419 -11.93987,-3.351254 -17.87097,-0.345738 l -1.56684,0.793978 -0.65419,-1.478883 C 171.49438,77.704135 171.2,76.930676 171.2,76.798724 c 0,-0.131955 0.69055,-0.536982 1.53455,-0.900064 6.12573,-2.635215 14.14777,-3.002134 18.85523,-0.862409 3.59268,1.633014 6.32453,5.318291 7.1034,9.582514 0.20897,1.144071 0.34681,6.645021 0.34681,13.839999 v 11.941226 h -1.23813 c -1.18213,0 -1.2471,-0.0543 -1.43647,-1.2 -0.10909,-0.66 -0.20214,-1.848 -0.20677,-2.64 -0.0127,-2.16825 -0.38881,-2.4895 -1.30693,-1.11624 -0.42443,0.63483 -1.6007,1.78372 -2.61393,2.55308 -3.91525,2.97294 -9.4677,4.05418 -14.82919,2.88773 z m 9.31576,-3.36606 c 2.60124,-0.89496 4.28705,-1.94873 5.87701,-3.67364 2.10179,-2.28017 2.91178,-4.309053 2.91553,-7.30286 l 0.003,-2.497994 -1.38003,-0.610451 c -5.23305,-2.314829 -12.94501,-2.507168 -17.49903,-0.436432 -3.33566,1.516739 -4.62132,3.464249 -4.62299,7.00287 -0.002,3.936217 1.9421,6.409407 6.06205,7.712377 2.06067,0.65171 6.47434,0.55272 8.64433,-0.19387 z m 85.01666,3.1935 c -3.16107,-0.82811 -5.26545,-2.02206 -7.60012,-4.31201 -3.38708,-3.32221 -5.24976,-8.204419 -5.24976,-13.759996 0,-12.859081 10.35234,-21.437509 22.21054,-18.40469 4.96069,1.268729 8.82767,4.450198 11.03811,9.08134 1.55324,3.254236 1.94023,5.113827 1.94023,9.32335 0,4.111407 -0.38876,6.05982 -1.80419,9.042356 -3.55466,7.49023 -12.0879,11.2425 -20.53481,9.02965 z m 10.26001,-3.60143 c 2.09649,-0.9523 5.05378,-3.59581 6.18827,-5.53166 1.60118,-2.732216 2.14018,-4.866555 2.17658,-8.618916 0.0373,-3.844202 -0.3325,-5.641382 -1.74747,-8.492765 -1.3917,-2.804486 -3.50875,-4.919372 -6.30861,-6.302153 -2.35489,-1.163024 -2.55783,-1.205081 -5.81491,-1.205081 -3.00067,0 -3.57999,0.09611 -5.22486,0.86687 -1.01749,0.476778 -2.69245,1.670438 -3.72212,2.652579 -3.28853,3.136729 -4.84613,7.045254 -4.84613,12.16055 0,7.432796 3.44217,12.702116 9.77406,14.962296 2.42549,0.86578 7.06379,0.62633 9.52519,-0.49172 z m 78.15899,3.94433 c -8.49222,-1.85019 -13.6,-8.81076 -13.6,-18.533265 0,-11.146559 6.7272,-18.92164 16.37149,-18.92164 8.00758,0 13.64025,4.704579 15.16329,12.664905 0.25588,1.337267 0.46522,3.137228 0.46522,3.999916 v 1.568522 l -14.16,0.08333 -14.16,0.08333 0.0991,1.759999 c 0.12688,2.252231 0.85478,5.203386 1.73645,7.039993 1.57699,3.28505 5.27046,6.11909 9.17471,7.03989 3.57114,0.84223 8.86976,-0.12994 12.31072,-2.25872 0.8586,-0.53117 1.58957,-0.92422 1.62445,-0.87346 1.18336,1.72291 1.48663,2.54804 1.10535,3.00744 -0.56573,0.68168 -3.59975,2.17974 -5.73082,2.82961 -2.0263,0.61793 -8.45734,0.93339 -10.4,0.51015 z m 14.56,-22.667674 c 0,-1.148128 -1.00214,-4.378064 -1.83072,-5.900413 -1.08154,-1.987145 -2.88531,-3.615842 -5.17088,-4.668972 -2.44266,-1.125514 -6.65293,-1.173638 -9.36547,-0.107053 -3.86995,1.521683 -6.46198,4.942697 -7.61414,10.049206 l -0.27076,1.2 h 12.12599 c 11.4382,0 12.12598,-0.03249 12.12598,-0.572768 z m -163.2,-3.747232 V 58.879996 h 1.76 1.76 v 25.759998 25.759996 h -1.76 -1.76 z m 16.64,0 V 58.879996 h 1.76 1.76 v 25.759998 25.759996 h -1.76 -1.76 z m 16.64,7.84 V 74.559995 h 1.76 1.76 v 17.919999 17.919996 h -1.76 -1.76 z M 67.73716,102.70217 C 58.610747,101.6414 50.58806,95.551568 47.170476,87.090487 44.685004,80.937073 44.648047,73.47116 47.075138,67.829237 l 0.67431,-1.567478 1.370368,0.18783 c 1.692455,0.231974 3.130621,-0.519504 3.835011,-2.003894 0.644676,-1.358547 0.610093,-2.316912 -0.127232,-3.52609 l -0.610012,-1.000387 1.491209,-1.434691 c 2.84944,-2.741452 6.324829,-4.557859 10.966541,-5.731651 2.25271,-0.56966 3.233078,-0.637558 6.972956,-0.482934 2.39344,0.09896 4.709267,0.222701 5.146285,0.274989 0.744794,0.08911 0.839629,-0.07535 1.513642,-2.624934 0.804016,-3.04136 1.872121,-10.180941 2.17822,-14.559999 0.359447,-5.142203 -0.714732,-15.723019 -2.190505,-21.576801 l -0.714349,-2.833527 0.709216,0.269644 c 3.472995,1.320429 8.192374,4.544766 10.71431,7.320141 2.298454,2.529434 4.57145,6.913856 5.236381,10.100543 0.596627,2.859341 0.607437,7.749852 0.02387,10.799874 -0.943229,4.929818 -3.438954,10.777347 -6.597539,15.458169 l -1.530298,2.267801 1.133895,0.904759 1.133894,0.904755 0.60519,-0.76768 c 1.962544,-2.489488 6.223319,-9.270479 7.720851,-12.287679 3.021338,-6.087344 5.594028,-13.403916 6.837788,-19.446295 l 0.55382,-2.690555 1.27244,1.468426 c 2.68827,3.102326 5.05501,7.511964 5.9864,11.153685 0.77439,3.027824 0.82332,7.989641 0.10783,10.934294 -1.6157,6.649558 -7.14806,13.852898 -14.459225,18.826456 -1.661315,1.130141 -2.588592,1.961398 -2.486051,2.228618 1.2472,3.250153 1.603261,5.243218 1.58736,8.885369 -0.01318,3.016486 -0.174749,4.389007 -0.753427,6.399999 -3.044679,10.580694 -11.419158,17.819496 -22.02039,19.034166 -1.538845,0.17632 -2.941901,0.30284 -3.117901,0.28115 -0.176,-0.0217 -1.302278,-0.1536 -2.502838,-0.29314 z m 9.767264,-10.939818 c 1.284566,-0.61792 2.970835,-1.676368 3.747267,-2.352109 2.699043,-2.349014 4.822032,-6.569612 5.296787,-10.530248 0.18807,-1.568976 -0.234042,-6.112227 -0.60208,-6.480266 -0.102743,-0.102745 -1.662717,0.274234 -3.466605,0.837725 -4.251222,1.327987 -8.480931,2.181261 -12.167305,2.454554 -3.544733,0.262793 -3.552333,0.277276 1.52751,-2.911581 1.936,-1.215322 4.937315,-3.275504 6.66959,-4.578189 l 3.149591,-2.368518 -0.794243,-0.79424 -0.79424,-0.794243 -2.835351,2.389648 c -3.250643,2.739657 -9.444294,6.96511 -10.20943,6.96511 -0.385661,0 0.01549,-0.780624 1.944822,-3.784525 2.112794,-3.289548 4.616477,-7.693807 4.624759,-8.135474 0.0081,-0.432003 -4.936784,-0.251527 -6.864311,0.250531 -5.229171,1.362025 -9.664338,5.761404 -11.20871,11.118262 -0.620614,2.152687 -0.697923,6.242703 -0.156038,8.255116 1.029187,3.822105 4.203536,7.990745 7.416387,9.739397 3.157808,1.718695 4.855225,2.097431 8.8016,1.96386 3.315772,-0.112228 3.759475,-0.205524 5.92,-1.24481 z M 244.62545,63.85454 c -0.57794,-0.57794 -0.78546,-1.131312 -0.78546,-2.094544 0,-2.725658 2.88197,-3.887267 4.82462,-1.944615 1.3162,1.316199 1.17608,3.268176 -0.31689,4.414439 -0.90166,0.692275 -2.85128,0.495715 -3.72227,-0.37528 z"
       id="path3856"
       inkscape:connector-curvature="0" />
    <path
       style="fill:#1370a8;stroke-width:0.31999999"
       d="M 304.31999,99.199993 V 74.559995 h 1.23373 1.23372 l 0.204,2.16 c 0.1122,1.188 0.20503,2.7635 0.20628,3.501113 0.003,1.854566 0.43665,1.945984 1.4036,0.296 0.89424,-1.525904 3.59172,-4.109549 5.11073,-4.895059 2.04588,-1.057968 4.6453,-1.747005 7.24794,-1.921238 7.79888,-0.522099 14.27687,4.04047 16.85895,11.874092 0.7494,2.273673 0.8534,3.105507 0.86329,6.905091 0.0106,4.004082 -0.0594,4.519942 -0.95469,7.054133 -2.79337,7.907053 -8.99728,12.245233 -16.76755,11.725053 -5.52437,-0.36983 -10.20826,-3.01786 -12.3819,-7.00007 -0.56869,-1.04189 -0.57947,-0.89122 -0.66253,9.26088 l -0.0844,10.32 h -1.75556 -1.75557 z m 20.82192,8.451757 c 3.56448,-1.0423 6.576,-3.70227 8.27571,-7.3096 1.16669,-2.476058 1.62237,-4.684368 1.62237,-7.862156 0,-4.574266 -1.29673,-8.394768 -3.82374,-11.2656 -6.09587,-6.92527 -17.23058,-5.437436 -21.54447,2.878803 -1.41948,2.736455 -1.93629,4.974963 -1.93629,8.386797 0,3.258025 0.50879,5.592623 1.76676,8.106856 2.9436,5.88318 9.52061,8.85421 15.63966,7.0649 z m -185.42042,3.3851 c -12.17838,-2.56614 -20.33019,-14.070626 -19.61116,-27.676856 0.65258,-12.348869 7.7098,-21.619259 18.78818,-24.680196 2.8602,-0.790269 9.87459,-0.793604 12.78149,-0.0061 4.00149,1.084067 10.2606,4.798143 10.23139,6.071177 -0.005,0.206304 -0.42114,0.872646 -0.92534,1.480755 l -0.91674,1.105654 -1.71465,-1.310432 c -2.08754,-1.595401 -4.94284,-3.051536 -7.49139,-3.820419 -2.5724,-0.776076 -8.15666,-0.771993 -11.02327,0.0081 -7.10126,1.932368 -12.87563,7.945341 -15.08802,15.711484 -0.59369,2.084006 -0.73081,3.363241 -0.73748,6.879999 -0.01,5.147699 0.43225,7.108022 2.59602,11.513046 2.05916,4.192038 5.49664,7.674788 9.40745,9.531328 1.48612,0.70548 3.38461,1.44483 4.21888,1.64298 6.36415,1.5116 13.07295,0.0345 17.97382,-3.95729 l 1.88329,-1.53396 0.5786,0.76195 c 1.27846,1.6836 1.39869,2.14442 0.74727,2.86423 -1.25357,1.38518 -5.29049,3.77486 -7.71497,4.56693 -5.01823,1.63943 -9.06234,1.88457 -13.98337,0.84765 z m 38.51851,-0.002 c -4.52063,-0.78581 -8.27621,-3.58025 -9.45811,-7.03758 -0.77454,-2.26569 -0.7755,-5.405224 -0.002,-7.666594 0.7224,-2.112934 3.116,-4.647542 5.39204,-5.709679 5.01085,-2.338368 13.20503,-2.57792 19.22979,-0.56217 l 2.20138,0.736535 -0.17198,-2.917466 c -0.21153,-3.588537 -0.85901,-5.490451 -2.50618,-7.361743 -1.61076,-1.82991 -3.9606,-2.972822 -6.98347,-3.396608 -3.74006,-0.52433 -7.50983,0.175488 -12.88108,2.391235 -0.41057,0.16937 -0.69811,-0.08727 -1.2,-1.071053 C 171.49702,77.7277 171.2,77.014955 171.2,76.855406 c 0,-0.398778 2.86806,-1.556742 5.76,-2.325558 1.32,-0.350922 3.84,-0.71834 5.6,-0.816487 7.11263,-0.396637 12.30873,2.020781 14.71552,6.846201 1.57506,3.157866 1.75288,4.969613 1.75892,17.920431 l 0.006,11.919997 h -1.2365 c -1.22842,0 -1.23783,-0.01 -1.44,-1.48466 -0.11192,-0.81657 -0.2035,-2.08857 -0.2035,-2.82667 0,-0.7381 -0.0765,-1.41855 -0.17011,-1.51212 -0.0936,-0.0936 -1.13756,0.79338 -2.32,1.97097 -1.33766,1.33219 -2.85554,2.47288 -4.0177,3.01932 -3.35242,1.57628 -7.62555,2.12579 -11.41218,1.46758 z m 10.30347,-4.23553 c 1.72875,-0.85439 2.93538,-1.74736 4.18505,-3.09716 2.1128,-2.28208 2.79148,-4.050124 2.79148,-7.272226 V 94.093441 L 194.30618,93.4742 c -1.9953,-1.01793 -4.82496,-1.640224 -8.39968,-1.847254 -8.80172,-0.509751 -14.073,2.642441 -14.06472,8.410614 0.003,2.31487 0.61215,3.71734 2.34903,5.41118 2.28714,2.23043 3.87174,2.72707 8.38637,2.62842 3.36941,-0.0736 3.65239,-0.13424 5.96629,-1.27784 z m 84.57329,4.23585 c -9.09024,-1.80744 -14.67573,-9.5181 -14.13618,-19.514736 0.49352,-9.143769 5.65255,-15.63334 13.8839,-17.464642 5.93529,-1.320474 12.04501,0.568371 16.24716,5.022876 3.44782,3.654877 4.95889,7.787398 4.95889,13.561766 0,5.906678 -1.57139,10.119606 -5.08216,13.625366 -2.43572,2.43225 -5.14894,3.90268 -8.50838,4.61114 -2.40538,0.50726 -5.29546,0.56936 -7.36323,0.15823 z m 9.20027,-4.06495 c 6.48197,-3.04528 9.6646,-11.068875 7.59709,-19.152727 -1.13772,-4.448473 -3.97805,-8.020703 -7.9142,-9.953561 -1.6802,-0.825062 -2.14551,-0.903497 -5.35993,-0.903497 -3.30259,0 -3.65469,0.06379 -5.70081,1.032928 -3.79443,1.797206 -6.91801,5.815833 -7.90274,10.16725 -0.48593,2.147264 -0.47931,6.780227 0.0127,8.867097 1.14924,4.87475 4.5901,8.8762 9.05611,10.53153 1.31114,0.48598 2.31926,0.59372 4.85476,0.51886 2.81445,-0.0831 3.45989,-0.21658 5.35704,-1.10788 z m 77.4828,3.93413 c -8.52518,-1.94614 -13.72589,-9.7459 -13.13817,-19.703916 0.33852,-5.736093 1.95558,-9.78182 5.2168,-13.052137 3.87571,-3.886509 9.46204,-5.391766 15.08767,-4.065417 6.77517,1.597388 10.85904,6.969513 11.48458,15.107435 l 0.20371,2.650119 h -14.10835 c -7.75955,0 -14.17667,0.110598 -14.26019,0.245776 -0.26208,0.424044 0.38941,5.214447 0.93082,6.844559 1.22236,3.680151 4.33919,6.965751 7.91315,8.341581 2.32425,0.89475 6.50803,1.09547 9.27299,0.44488 2.18909,-0.51509 5.05037,-1.77867 6.0791,-2.68465 0.30909,-0.27219 0.60707,-0.43577 0.66221,-0.36352 0.2599,0.34071 1.49584,2.58535 1.49584,2.71671 0,0.43814 -3.37501,2.18443 -5.6,2.89754 -3.18192,1.01979 -8.26349,1.30056 -11.24016,0.62104 z m 14.91635,-22.663916 c -0.0141,-2.647958 -1.94118,-6.667756 -4.148,-8.651878 -2.1879,-1.967097 -4.18864,-2.632739 -7.84819,-2.611059 -2.40291,0.01424 -3.18083,0.155261 -4.69603,0.851331 -3.81859,1.754202 -6.32422,5.206125 -7.44131,10.251606 l -0.19485,0.88 h 12.16608 12.16611 l -0.004,-0.72 z m -163.19619,-3.6 V 58.879996 h 1.76 1.76 v 25.759998 25.759996 h -1.76 -1.76 z m 16.64,0 V 58.879996 h 1.76 1.76 v 25.759998 25.759996 h -1.76 -1.76 z m 16.64,7.84 V 74.559995 h 1.76 1.76 v 17.919999 17.919996 h -1.76 -1.76 z M 65.944059,102.37207 C 60.210069,101.24708 54.670248,97.874102 50.947967,93.241536 45.365778,86.294221 43.893727,76.767041 47.066725,68.121934 l 0.659939,-1.798063 1.363639,0.153702 c 2.650316,0.29873 4.594476,-1.600864 4.251964,-4.154493 -0.09242,-0.689017 -0.402492,-1.511836 -0.689056,-1.828486 -0.488806,-0.540121 -0.426169,-0.659523 1.01288,-1.93079 3.424928,-3.025606 7.148579,-4.905065 11.743443,-5.927324 2.316211,-0.515309 5.956765,-0.54129 11.22608,-0.08012 0.933594,0.08171 0.972032,0.02627 1.667725,-2.405641 2.849843,-9.962076 2.899213,-24.663514 0.12167,-36.229332 -0.337952,-1.407237 -0.574211,-2.598856 -0.525024,-2.648043 0.210698,-0.210696 3.276103,1.315363 5.398944,2.687772 7.220211,4.66784 10.840013,10.54502 11.322384,18.383236 0.438912,7.132006 -1.985213,14.961957 -6.939424,22.414437 l -1.569667,2.361206 1.023888,0.870819 c 0.563139,0.478947 1.167888,0.827623 1.343888,0.774829 0.390566,-0.117152 4.833772,-6.562336 6.649558,-9.645647 3.180157,-5.400096 6.735924,-14.704809 8.303964,-21.729783 l 0.76959,-3.447836 0.99919,1.138017 c 1.55501,1.771053 3.56154,4.850492 4.5834,7.034153 2.53073,5.408025 2.91271,11.828137 1.02603,17.244793 -1.32601,3.806982 -3.86938,7.769887 -7.13173,11.112152 -2.31417,2.370855 -3.766713,3.552035 -8.766927,7.129097 -0.594019,0.424948 -0.592333,0.478052 0.0792,2.496794 1.574243,4.732483 1.543097,9.752476 -0.09225,14.868088 -1.32265,4.137447 -3.098618,6.983213 -6.387097,10.234521 -3.994756,3.949603 -7.676794,6.009188 -12.613437,7.055448 -2.334749,0.49482 -7.707011,0.55776 -9.955427,0.11663 z m 7.434643,-9.282211 c 4.931402,-0.750297 9.148121,-3.82495 11.3908,-8.305686 0.692589,-1.383747 1.431475,-3.3455 1.641971,-4.359452 0.4236,-2.040467 0.267648,-6.174352 -0.284874,-7.551286 l -0.35575,-0.886563 -1.205424,0.510307 c -3.400893,1.439734 -14.201638,3.606608 -16.418265,3.293875 -0.659069,-0.09299 -0.292471,-0.420461 2.252838,-2.012413 3.443005,-2.153414 8.568074,-5.735113 10.239392,-7.155894 l 1.119392,-0.95159 -0.799392,-0.664934 c -0.439664,-0.365715 -0.884986,-0.669725 -0.989603,-0.675581 -0.104618,-0.0059 -0.994355,0.69304 -1.977197,1.553104 -3.691053,3.229955 -10.637686,7.97782 -11.057773,7.557734 -0.07518,-0.07518 0.725312,-1.474266 1.778871,-3.109085 2.534016,-3.932076 4.88631,-8.055283 4.88631,-8.56495 0,-0.316502 -0.789677,-0.377123 -3.472624,-0.266579 -3.176048,0.130858 -3.681094,0.24208 -5.913593,1.302288 -8.354925,3.967734 -11.74023,13.58118 -7.65681,21.743461 2.550256,5.097664 7.938467,8.56006 13.781731,8.85597 0.406285,0.02058 1.774285,-0.120153 3.04,-0.312726 z M 245.22091,64.317762 c -0.90104,-0.36304 -1.38352,-1.284083 -1.37074,-2.616729 0.0159,-1.663024 1.26114,-2.821037 3.0334,-2.821037 1.20934,0 2.71642,1.59784 2.71642,2.88 0,2.049302 -2.30277,3.394326 -4.37908,2.557766 z"
       id="path3854"
       inkscape:connector-curvature="0" />
    <path
       style="fill:#02436f;stroke-width:0.31999999"
       d="M 304.31999,99.199993 V 74.559995 h 1.23373 1.23372 l 0.204,2.16 c 0.1122,1.188 0.20503,2.7635 0.20628,3.501113 0.003,1.854566 0.43665,1.945984 1.4036,0.296 0.89424,-1.525904 3.59172,-4.109549 5.11073,-4.895059 2.04588,-1.057968 4.6453,-1.747005 7.24794,-1.921238 7.79888,-0.522099 14.27687,4.04047 16.85895,11.874092 0.7494,2.273673 0.8534,3.105507 0.86329,6.905091 0.0106,4.004082 -0.0594,4.519942 -0.95469,7.054133 -2.79337,7.907053 -8.99728,12.245233 -16.76755,11.725053 -5.52437,-0.36983 -10.20826,-3.01786 -12.3819,-7.00007 -0.56869,-1.04189 -0.57947,-0.89122 -0.66253,9.26088 l -0.0844,10.32 h -1.75556 -1.75557 z m 20.82192,8.451757 c 3.56448,-1.0423 6.576,-3.70227 8.27571,-7.3096 1.16669,-2.476058 1.62237,-4.684368 1.62237,-7.862156 0,-4.574266 -1.29673,-8.394768 -3.82374,-11.2656 -6.09587,-6.92527 -17.23058,-5.437436 -21.54447,2.878803 -1.41948,2.736455 -1.93629,4.974963 -1.93629,8.386797 0,3.258025 0.50879,5.592623 1.76676,8.106856 2.9436,5.88318 9.52061,8.85421 15.63966,7.0649 z m -185.42042,3.3851 c -12.17838,-2.56614 -20.33019,-14.070626 -19.61116,-27.676856 0.65258,-12.348869 7.7098,-21.619259 18.78818,-24.680196 2.8602,-0.790269 9.87459,-0.793604 12.78149,-0.0061 4.00149,1.084067 10.2606,4.798143 10.23139,6.071177 -0.005,0.206304 -0.42114,0.872646 -0.92534,1.480755 l -0.91674,1.105654 -1.71465,-1.310432 c -2.08754,-1.595401 -4.94284,-3.051536 -7.49139,-3.820419 -2.5724,-0.776076 -8.15666,-0.771993 -11.02327,0.0081 -7.10126,1.932368 -12.87563,7.945341 -15.08802,15.711484 -0.59369,2.084006 -0.73081,3.363241 -0.73748,6.879999 -0.01,5.147699 0.43225,7.108022 2.59602,11.513046 2.05916,4.192038 5.49664,7.674788 9.40745,9.531328 1.48612,0.70548 3.38461,1.44483 4.21888,1.64298 6.36415,1.5116 13.07295,0.0345 17.97382,-3.95729 l 1.88329,-1.53396 0.5786,0.76195 c 1.27846,1.6836 1.39869,2.14442 0.74727,2.86423 -1.25357,1.38518 -5.29049,3.77486 -7.71497,4.56693 -5.01823,1.63943 -9.06234,1.88457 -13.98337,0.84765 z m 38.51851,-0.002 c -4.52063,-0.78581 -8.27621,-3.58025 -9.45811,-7.03758 -0.77454,-2.26569 -0.7755,-5.405224 -0.002,-7.666594 0.7224,-2.112934 3.116,-4.647542 5.39204,-5.709679 5.01085,-2.338368 13.20503,-2.57792 19.22979,-0.56217 l 2.20138,0.736535 -0.17198,-2.917466 c -0.21153,-3.588537 -0.85901,-5.490451 -2.50618,-7.361743 -1.61076,-1.82991 -3.9606,-2.972822 -6.98347,-3.396608 -3.74006,-0.52433 -7.50983,0.175488 -12.88108,2.391235 -0.41057,0.16937 -0.69811,-0.08727 -1.2,-1.071053 C 171.49702,77.7277 171.2,77.014955 171.2,76.855406 c 0,-0.398778 2.86806,-1.556742 5.76,-2.325558 1.32,-0.350922 3.84,-0.71834 5.6,-0.816487 7.11263,-0.396637 12.30873,2.020781 14.71552,6.846201 1.57506,3.157866 1.75288,4.969613 1.75892,17.920431 l 0.006,11.919997 h -1.2365 c -1.22842,0 -1.23783,-0.01 -1.44,-1.48466 -0.11192,-0.81657 -0.2035,-2.08857 -0.2035,-2.82667 0,-0.7381 -0.0765,-1.41855 -0.17011,-1.51212 -0.0936,-0.0936 -1.13756,0.79338 -2.32,1.97097 -1.33766,1.33219 -2.85554,2.47288 -4.0177,3.01932 -3.35242,1.57628 -7.62555,2.12579 -11.41218,1.46758 z m 10.30347,-4.23553 c 1.72875,-0.85439 2.93538,-1.74736 4.18505,-3.09716 2.1128,-2.28208 2.79148,-4.050124 2.79148,-7.272226 V 94.093441 L 194.30618,93.4742 c -1.9953,-1.01793 -4.82496,-1.640224 -8.39968,-1.847254 -8.80172,-0.509751 -14.073,2.642441 -14.06472,8.410614 0.003,2.31487 0.61215,3.71734 2.34903,5.41118 2.28714,2.23043 3.87174,2.72707 8.38637,2.62842 3.36941,-0.0736 3.65239,-0.13424 5.96629,-1.27784 z m 84.57329,4.23585 c -9.09024,-1.80744 -14.67573,-9.5181 -14.13618,-19.514736 0.49352,-9.143769 5.65255,-15.63334 13.8839,-17.464642 5.93529,-1.320474 12.04501,0.568371 16.24716,5.022876 3.44782,3.654877 4.95889,7.787398 4.95889,13.561766 0,5.906678 -1.57139,10.119606 -5.08216,13.625366 -2.43572,2.43225 -5.14894,3.90268 -8.50838,4.61114 -2.40538,0.50726 -5.29546,0.56936 -7.36323,0.15823 z m 9.20027,-4.06495 c 6.48197,-3.04528 9.6646,-11.068875 7.59709,-19.152727 -1.13772,-4.448473 -3.97805,-8.020703 -7.9142,-9.953561 -1.6802,-0.825062 -2.14551,-0.903497 -5.35993,-0.903497 -3.30259,0 -3.65469,0.06379 -5.70081,1.032928 -3.79443,1.797206 -6.91801,5.815833 -7.90274,10.16725 -0.48593,2.147264 -0.47931,6.780227 0.0127,8.867097 1.14924,4.87475 4.5901,8.8762 9.05611,10.53153 1.31114,0.48598 2.31926,0.59372 4.85476,0.51886 2.81445,-0.0831 3.45989,-0.21658 5.35704,-1.10788 z m 77.4828,3.93413 c -8.52518,-1.94614 -13.72589,-9.7459 -13.13817,-19.703916 0.33852,-5.736093 1.95558,-9.78182 5.2168,-13.052137 3.87571,-3.886509 9.46204,-5.391766 15.08767,-4.065417 6.77517,1.597388 10.85904,6.969513 11.48458,15.107435 l 0.20371,2.650119 h -14.10835 c -7.75955,0 -14.17667,0.110598 -14.26019,0.245776 -0.26208,0.424044 0.38941,5.214447 0.93082,6.844559 1.22236,3.680151 4.33919,6.965751 7.91315,8.341581 2.32425,0.89475 6.50803,1.09547 9.27299,0.44488 2.18909,-0.51509 5.05037,-1.77867 6.0791,-2.68465 0.30909,-0.27219 0.60707,-0.43577 0.66221,-0.36352 0.2599,0.34071 1.49584,2.58535 1.49584,2.71671 0,0.43814 -3.37501,2.18443 -5.6,2.89754 -3.18192,1.01979 -8.26349,1.30056 -11.24016,0.62104 z m 14.91635,-22.663916 c -0.0141,-2.647958 -1.94118,-6.667756 -4.148,-8.651878 -2.1879,-1.967097 -4.18864,-2.632739 -7.84819,-2.611059 -2.40291,0.01424 -3.18083,0.155261 -4.69603,0.851331 -3.81859,1.754202 -6.32422,5.206125 -7.44131,10.251606 l -0.19485,0.88 h 12.16608 12.16611 l -0.004,-0.72 z m -163.19619,-3.6 V 58.879996 h 1.76 1.76 v 25.759998 25.759996 h -1.76 -1.76 z m 16.64,0 V 58.879996 h 1.76 1.76 v 25.759998 25.759996 h -1.76 -1.76 z m 16.64,7.84 V 74.559995 h 1.76 1.76 v 17.919999 17.919996 h -1.76 -1.76 z M 65.493352,102.19873 C 56.429307,100.25429 49.224255,93.628649 46.399109,84.639994 44.926271,79.953921 45.244376,72.605944 47.118882,68.013739 l 0.686182,-1.68103 1.324439,0.149283 c 2.609689,0.294151 4.552755,-1.62408 4.212764,-4.158912 -0.09242,-0.689017 -0.402492,-1.511836 -0.689056,-1.828486 -0.488784,-0.540099 -0.426105,-0.660118 1.01288,-1.939516 4.699818,-4.178599 10.577207,-6.395139 16.957078,-6.395027 6.567527,1.15e-4 11.685939,1.751673 16.1716,5.534035 l 1.590026,1.340729 0.782297,-0.957408 c 1.720061,-2.105091 5.70367,-8.338527 7.30809,-11.43549 3.035145,-5.858656 6.013948,-14.269766 7.290408,-20.58561 l 0.43658,-2.160179 1.82815,2.336453 c 7.57183,9.677125 7.93926,20.553179 1.02185,30.24706 -2.04181,2.861344 -6.1417,6.812031 -9.650217,9.299036 -1.651075,1.170362 -3.001955,2.2344 -3.001955,2.364528 0,0.130128 0.286044,1.068003 0.635657,2.084166 2.065287,6.002864 1.209933,13.387327 -2.281033,19.692623 -1.582848,2.858902 -6.192605,7.595922 -8.985411,9.233474 -5.481971,3.214332 -12.239162,4.340272 -18.275859,3.045262 z m 8.65911,-9.20874 c 4.65209,-0.998188 8.496822,-3.96975 10.61704,-8.205817 0.692589,-1.383747 1.431475,-3.3455 1.641971,-4.359452 0.42088,-2.027366 0.268685,-6.172429 -0.276445,-7.52912 l -0.347321,-0.86439 -2.813856,0.955069 c -1.547619,0.525289 -4.541853,1.298156 -6.653853,1.717484 -3.748016,0.744154 -8.8,1.34128 -8.8,1.040128 0,-0.08289 1.597261,-1.139174 3.549466,-2.347302 3.757001,-2.32503 10.271779,-7.094934 10.435878,-7.640803 0.162358,-0.540086 -3.105408,-2.478575 -5.825344,-3.455686 -2.339369,-0.840396 -2.842646,-0.907827 -5.839561,-0.782409 -3.069773,0.128464 -3.450938,0.222163 -5.958637,1.464777 -4.417632,2.189024 -7.430214,5.928585 -8.672057,10.764758 -2.107588,8.20767 3.419766,17.138978 11.873161,19.185099 2.393232,0.579277 4.556345,0.596922 7.069558,0.05766 z M 245.22091,64.317762 c -0.90104,-0.36304 -1.38352,-1.284083 -1.37074,-2.616729 0.0159,-1.663024 1.26114,-2.821037 3.0334,-2.821037 1.20934,0 2.71642,1.59784 2.71642,2.88 0,2.049302 -2.30277,3.394326 -4.37908,2.557766 z"
       id="path3852"
       inkscape:connector-curvature="0" />
    <path
       style="fill:#1b3547;stroke-width:0.31999999"
       d="M 304.31999,99.199993 V 74.559995 h 1.23373 1.23372 l 0.204,2.16 c 0.1122,1.188 0.20503,2.7635 0.20628,3.501113 0.003,1.854566 0.43665,1.945984 1.4036,0.296 0.89424,-1.525904 3.59172,-4.109549 5.11073,-4.895059 2.04588,-1.057968 4.6453,-1.747005 7.24794,-1.921238 7.79888,-0.522099 14.27687,4.04047 16.85895,11.874092 0.7494,2.273673 0.8534,3.105507 0.86329,6.905091 0.0106,4.004082 -0.0594,4.519942 -0.95469,7.054133 -2.79337,7.907053 -8.99728,12.245233 -16.76755,11.725053 -5.52437,-0.36983 -10.20826,-3.01786 -12.3819,-7.00007 -0.56869,-1.04189 -0.57947,-0.89122 -0.66253,9.26088 l -0.0844,10.32 h -1.75556 -1.75557 z m 20.82192,8.451757 c 3.56448,-1.0423 6.576,-3.70227 8.27571,-7.3096 1.16669,-2.476058 1.62237,-4.684368 1.62237,-7.862156 0,-4.574266 -1.29673,-8.394768 -3.82374,-11.2656 -6.09587,-6.92527 -17.23058,-5.437436 -21.54447,2.878803 -1.41948,2.736455 -1.93629,4.974963 -1.93629,8.386797 0,3.258025 0.50879,5.592623 1.76676,8.106856 2.9436,5.88318 9.52061,8.85421 15.63966,7.0649 z m -185.42042,3.3851 c -12.17838,-2.56614 -20.33019,-14.070626 -19.61116,-27.676856 0.65258,-12.348869 7.7098,-21.619259 18.78818,-24.680196 2.8602,-0.790269 9.87459,-0.793604 12.78149,-0.0061 4.00149,1.084067 10.2606,4.798143 10.23139,6.071177 -0.005,0.206304 -0.42114,0.872646 -0.92534,1.480755 l -0.91674,1.105654 -1.71465,-1.310432 c -2.08754,-1.595401 -4.94284,-3.051536 -7.49139,-3.820419 -2.5724,-0.776076 -8.15666,-0.771993 -11.02327,0.0081 -7.10126,1.932368 -12.87563,7.945341 -15.08802,15.711484 -0.59369,2.084006 -0.73081,3.363241 -0.73748,6.879999 -0.01,5.147699 0.43225,7.108022 2.59602,11.513046 2.05916,4.192038 5.49664,7.674788 9.40745,9.531328 1.48612,0.70548 3.38461,1.44483 4.21888,1.64298 6.36415,1.5116 13.07295,0.0345 17.97382,-3.95729 l 1.88329,-1.53396 0.5786,0.76195 c 1.27846,1.6836 1.39869,2.14442 0.74727,2.86423 -1.25357,1.38518 -5.29049,3.77486 -7.71497,4.56693 -5.01823,1.63943 -9.06234,1.88457 -13.98337,0.84765 z m 38.51851,-0.002 c -4.52063,-0.78581 -8.27621,-3.58025 -9.45811,-7.03758 -0.77454,-2.26569 -0.7755,-5.405224 -0.002,-7.666594 0.7224,-2.112934 3.116,-4.647542 5.39204,-5.709679 5.01085,-2.338368 13.20503,-2.57792 19.22979,-0.56217 l 2.20138,0.736535 -0.17198,-2.917466 c -0.21153,-3.588537 -0.85901,-5.490451 -2.50618,-7.361743 -1.61076,-1.82991 -3.9606,-2.972822 -6.98347,-3.396608 -3.74006,-0.52433 -7.50983,0.175488 -12.88108,2.391235 -0.41057,0.16937 -0.69811,-0.08727 -1.2,-1.071053 C 171.49702,77.7277 171.2,77.014955 171.2,76.855406 c 0,-0.398778 2.86806,-1.556742 5.76,-2.325558 1.32,-0.350922 3.84,-0.71834 5.6,-0.816487 7.11263,-0.396637 12.30873,2.020781 14.71552,6.846201 1.57506,3.157866 1.75288,4.969613 1.75892,17.920431 l 0.006,11.919997 h -1.2365 c -1.22842,0 -1.23783,-0.01 -1.44,-1.48466 -0.11192,-0.81657 -0.2035,-2.08857 -0.2035,-2.82667 0,-0.7381 -0.0765,-1.41855 -0.17011,-1.51212 -0.0936,-0.0936 -1.13756,0.79338 -2.32,1.97097 -1.33766,1.33219 -2.85554,2.47288 -4.0177,3.01932 -3.35242,1.57628 -7.62555,2.12579 -11.41218,1.46758 z m 10.30347,-4.23553 c 1.72875,-0.85439 2.93538,-1.74736 4.18505,-3.09716 2.1128,-2.28208 2.79148,-4.050124 2.79148,-7.272226 V 94.093441 L 194.30618,93.4742 c -1.9953,-1.01793 -4.82496,-1.640224 -8.39968,-1.847254 -8.80172,-0.509751 -14.073,2.642441 -14.06472,8.410614 0.003,2.31487 0.61215,3.71734 2.34903,5.41118 2.28714,2.23043 3.87174,2.72707 8.38637,2.62842 3.36941,-0.0736 3.65239,-0.13424 5.96629,-1.27784 z m 84.57329,4.23585 c -9.09024,-1.80744 -14.67573,-9.5181 -14.13618,-19.514736 0.49352,-9.143769 5.65255,-15.63334 13.8839,-17.464642 5.93529,-1.320474 12.04501,0.568371 16.24716,5.022876 3.44782,3.654877 4.95889,7.787398 4.95889,13.561766 0,5.906678 -1.57139,10.119606 -5.08216,13.625366 -2.43572,2.43225 -5.14894,3.90268 -8.50838,4.61114 -2.40538,0.50726 -5.29546,0.56936 -7.36323,0.15823 z m 9.20027,-4.06495 c 6.48197,-3.04528 9.6646,-11.068875 7.59709,-19.152727 -1.13772,-4.448473 -3.97805,-8.020703 -7.9142,-9.953561 -1.6802,-0.825062 -2.14551,-0.903497 -5.35993,-0.903497 -3.30259,0 -3.65469,0.06379 -5.70081,1.032928 -3.79443,1.797206 -6.91801,5.815833 -7.90274,10.16725 -0.48593,2.147264 -0.47931,6.780227 0.0127,8.867097 1.14924,4.87475 4.5901,8.8762 9.05611,10.53153 1.31114,0.48598 2.31926,0.59372 4.85476,0.51886 2.81445,-0.0831 3.45989,-0.21658 5.35704,-1.10788 z m 77.4828,3.93413 c -8.52518,-1.94614 -13.72589,-9.7459 -13.13817,-19.703916 0.33852,-5.736093 1.95558,-9.78182 5.2168,-13.052137 3.87571,-3.886509 9.46204,-5.391766 15.08767,-4.065417 6.77517,1.597388 10.85904,6.969513 11.48458,15.107435 l 0.20371,2.650119 h -14.10835 c -7.75955,0 -14.17667,0.110598 -14.26019,0.245776 -0.26208,0.424044 0.38941,5.214447 0.93082,6.844559 1.22236,3.680151 4.33919,6.965751 7.91315,8.341581 2.32425,0.89475 6.50803,1.09547 9.27299,0.44488 2.18909,-0.51509 5.05037,-1.77867 6.0791,-2.68465 0.30909,-0.27219 0.60707,-0.43577 0.66221,-0.36352 0.2599,0.34071 1.49584,2.58535 1.49584,2.71671 0,0.43814 -3.37501,2.18443 -5.6,2.89754 -3.18192,1.01979 -8.26349,1.30056 -11.24016,0.62104 z m 14.91635,-22.663916 c -0.0141,-2.647958 -1.94118,-6.667756 -4.148,-8.651878 -2.1879,-1.967097 -4.18864,-2.632739 -7.84819,-2.611059 -2.40291,0.01424 -3.18083,0.155261 -4.69603,0.851331 -3.81859,1.754202 -6.32422,5.206125 -7.44131,10.251606 l -0.19485,0.88 h 12.16608 12.16611 l -0.004,-0.72 z m -163.19619,-3.6 V 58.879996 h 1.76 1.76 v 25.759998 25.759996 h -1.76 -1.76 z m 16.64,0 V 58.879996 h 1.76 1.76 v 25.759998 25.759996 h -1.76 -1.76 z m 16.64,7.84 V 74.559995 h 1.76 1.76 v 17.919999 17.919996 h -1.76 -1.76 z M 65.599998,102.22563 c -9.36175,-1.99603 -16.892527,-9.122875 -19.427692,-18.385636 -0.427248,-1.56104 -0.56657,-3.237676 -0.558406,-6.719999 0.0103,-4.39679 0.06612,-4.801322 1.06488,-7.717718 l 1.054,-3.077715 1.360582,0.153357 c 2.647145,0.298371 4.591222,-1.602666 4.248905,-4.154839 -0.09242,-0.689017 -0.402492,-1.511836 -0.689056,-1.828486 -0.488713,-0.540019 -0.428412,-0.657248 0.972336,-1.890233 3.425322,-3.015091 7.286963,-4.967389 11.820528,-5.976009 2.966371,-0.659956 9.178912,-0.507604 12.153923,0.298054 6.207133,1.680944 12.457257,6.655734 15.474758,12.317148 1.325091,2.486124 2.549203,6.486313 2.940941,9.610492 0.590841,4.712051 -0.616317,10.289052 -3.261075,15.065948 -1.582848,2.858902 -6.192605,7.595922 -8.985411,9.233474 -5.405111,3.169272 -12.269779,4.329992 -18.169213,3.072162 z m 8.181229,-9.132449 c 7.404585,-1.352458 12.955536,-8.272 12.932022,-16.120418 -0.01574,-5.260502 -3.53953,-11.049683 -8.24535,-13.546246 -3.054205,-1.620336 -5.193866,-2.087209 -8.775242,-1.914755 -2.895952,0.13945 -3.363324,0.257907 -5.819388,1.474934 -10.029744,4.969936 -12.208272,17.992508 -4.303831,25.727 3.850938,3.768144 8.952231,5.34015 14.211789,4.379485 z M 245.22091,64.317762 c -0.90104,-0.36304 -1.38352,-1.284083 -1.37074,-2.616729 0.0159,-1.663024 1.26114,-2.821037 3.0334,-2.821037 1.20934,0 2.71642,1.59784 2.71642,2.88 0,2.049302 -2.30277,3.394326 -4.37908,2.557766 z"
       id="path3850"
       inkscape:connector-curvature="0" />
    <path
       style="fill:#ffffff;stroke-width:0.31999999"
       d="M 304.31999,99.199993 V 74.559995 h 1.24464 1.24464 l 0.23072,3.84 c 0.1269,2.111999 0.32281,3.833081 0.43536,3.824623 0.11256,-0.0084 0.70864,-0.820771 1.32464,-1.805139 2.13992,-3.419596 6.23285,-5.899961 10.80194,-6.546118 8.57323,-1.212412 16.22536,4.143315 18.45275,12.915116 2.40387,9.466889 -1.39146,19.157773 -8.93469,22.813523 -7.32214,3.5486 -16.17773,1.25948 -20.36658,-5.26466 l -0.91342,-1.42265 v 10.46265 10.46265 h -1.76 -1.76 z m 22.72,7.791637 c 5.08554,-2.41632 8.06957,-7.782562 8.06957,-14.511636 0,-6.727222 -2.98659,-12.099891 -8.06403,-14.506684 -2.62487,-1.244234 -6.55373,-1.547757 -9.38402,-0.724967 -4.22,1.226788 -7.8169,4.94824 -9.24425,9.564342 -1.01021,3.267046 -1.01465,8.133152 -0.0104,11.334617 1.00122,3.191648 2.98506,5.980678 5.45767,7.672758 2.77943,1.90206 4.38115,2.3485 8.05542,2.24527 2.63232,-0.074 3.31894,-0.21795 5.12,-1.0737 z m -185.42754,4.35323 c -15.06409,-2.35907 -24.15425,-16.774531 -20.79778,-32.981803 2.00326,-9.673107 8.82153,-17.068015 18.02192,-19.546075 1.85168,-0.49874 3.41209,-0.658116 6.44341,-0.658116 4.51419,0 7.5479,0.638192 10.76593,2.264803 1.93072,0.97592 5.87407,3.731975 5.87407,4.105459 0,0.115751 -0.38473,0.728048 -0.85494,1.360663 -0.47022,0.632611 -0.88528,1.193257 -0.92235,1.245881 -0.0371,0.05262 -0.98435,-0.596771 -2.10506,-1.443094 -4.94391,-3.733475 -11.27865,-5.097942 -17.33448,-3.73375 -6.32076,1.423872 -11.33022,5.445465 -14.28325,11.466568 -2.00044,4.078839 -2.40394,6.008035 -2.4125,11.534598 -0.006,4.15528 0.0933,5.120845 0.74266,7.188723 3.28213,10.452283 11.71221,16.561933 21.95867,15.914383 4.41078,-0.27874 7.68333,-1.50181 11.30712,-4.22586 2.15804,-1.62223 2.33203,-1.6166 3.3445,0.10816 l 0.56037,0.95461 -1.6533,1.48647 c -1.95966,1.7619 -6.0039,3.79371 -8.90744,4.47507 -2.69469,0.63235 -7.32865,0.86211 -9.74755,0.48331 z M 179.68,111.17955 c -0.352,-0.0802 -1.432,-0.30565 -2.4,-0.50096 -5.5646,-1.12274 -8.97905,-5.17255 -8.94596,-10.6106 0.0231,-3.793021 1.32671,-6.354038 4.25755,-8.364115 5.13056,-3.518716 15.23518,-3.958201 22.4076,-0.974582 0.56692,0.23583 0.59229,0.07717 0.47089,-2.945258 -0.11331,-2.821158 -0.2512,-3.44413 -1.17976,-5.330322 -1.94099,-3.942704 -5.02103,-5.48567 -10.93032,-5.475613 -3.50896,0.006 -6.62901,0.709459 -9.38714,2.11655 -0.67919,0.346496 -1.31526,0.549616 -1.41349,0.451383 -0.0982,-0.09823 -0.44137,-0.765494 -0.76251,-1.482797 l -0.58391,-1.304192 1.83353,-0.812035 c 3.48263,-1.542403 6.30625,-2.104953 10.63352,-2.118505 3.23024,-0.01011 4.39488,0.117299 6.05201,0.662115 4.1789,1.373901 7.02565,4.217161 8.42769,8.417362 0.64417,1.929815 0.6923,2.809501 0.80818,14.772012 l 0.12322,12.719997 h -1.27991 -1.2799 l -0.22777,-3.21262 c -0.12527,-1.76695 -0.33647,-3.17095 -0.46934,-3.12 -0.13287,0.0509 -0.72592,0.73062 -1.31788,1.51039 -1.43398,1.88892 -4.59984,4.00935 -7.17242,4.80394 -2.04944,0.63301 -6.3999,1.08591 -7.66388,0.79785 z m 5.64194,-3.16044 c 4.19404,-0.88897 7.55325,-3.30861 9.21773,-6.63953 0.8685,-1.738019 0.98033,-2.279641 0.98033,-4.748035 v -2.786224 l -1.63754,-0.680531 c -4.39206,-1.825257 -12.48942,-2.194662 -16.24427,-0.741068 -4.04228,1.56487 -5.80104,3.858991 -5.79507,7.5591 0.007,4.203788 2.49665,7.054018 7.03688,8.055368 2.36528,0.52166 3.91243,0.51708 6.44194,-0.0191 z m 87.76393,2.88875 c -6.50783,-1.23449 -11.67368,-6.10777 -13.42834,-12.667867 -0.68058,-2.544432 -0.77129,-8.064162 -0.17356,-10.559999 1.57253,-6.566028 6.11137,-11.456889 12.35602,-13.314319 2.93616,-0.873338 7.38795,-0.762717 10.27266,0.255264 7.49263,2.64406 11.96734,9.381564 11.96734,18.019055 0,10.433006 -6.56701,17.847586 -16.41892,18.537996 -1.31835,0.0924 -3.27229,-0.023 -4.5752,-0.27013 z m 5.96703,-2.75032 c 5.32249,-1.00938 9.56006,-5.13685 11.01711,-10.730843 0.62349,-2.393747 0.63023,-7.153804 0.0135,-9.521682 -1.13004,-4.338525 -4.07626,-8.19312 -7.55652,-9.886336 -8.3894,-4.081606 -17.60576,0.948381 -19.62186,10.708969 -0.62469,3.02433 -0.62984,4.868198 -0.0216,7.752345 1.27325,6.037657 5.26358,10.339977 10.7165,11.554397 2.24054,0.49898 3.3402,0.52382 5.45291,0.12315 z m 81.69803,2.873 c -6.78288,-1.21906 -11.57603,-5.8002 -13.45292,-12.857852 -0.72538,-2.727616 -0.72195,-8.656086 0.007,-11.452694 1.88816,-7.247561 6.76985,-11.887839 13.53254,-12.863231 2.16534,-0.312314 3.01664,-0.291754 5.12,0.123645 3.49242,0.689728 5.39962,1.666092 7.66486,3.923913 2.9122,2.902685 4.28884,6.206096 4.78276,11.476962 l 0.2304,2.458711 H 364.31356 349.9918 l 0.22365,2.467996 c 0.5583,6.16095 3.27609,10.39168 8.14515,12.67937 1.83376,0.86158 2.55088,1.01198 5.31949,1.1157 3.82812,0.14341 6.38976,-0.41921 9.40841,-2.06641 2.19399,-1.19721 2.10727,-1.21391 3.08704,0.59472 0.4697,0.86698 0.46355,0.87629 -1.21171,1.84304 -3.7897,2.18696 -10.02621,3.30857 -14.2128,2.55613 z m 13.87776,-23.594021 c -0.5006,-4.226963 -2.82022,-7.742102 -6.20934,-9.409696 -2.04525,-1.006358 -2.35891,-1.066412 -5.53376,-1.059488 -3.71594,0.0081 -5.29578,0.499876 -7.68509,2.39224 -2.11401,1.674346 -4.02364,5.152525 -4.61209,8.400419 l -0.21741,1.2 h 12.21907 12.21907 z M 211.51999,84.639994 V 58.879996 h 1.76 1.76 v 25.759998 25.759996 h -1.76 -1.76 z m 16.64,0 V 58.879996 h 1.76 1.76 v 25.759998 25.759996 h -1.76 -1.76 z m 16.64,7.84 V 74.559995 h 1.76 1.76 v 17.919999 17.919996 h -1.76 -1.76 z M 66.134123,102.23171 C 50.903656,99.346291 41.993061,83.958017 46.914421,69.039995 l 0.818135,-2.48 h 1.765721 c 1.581408,0 1.879293,-0.113571 2.853722,-1.088 0.887747,-0.887747 1.088,-1.332406 1.088,-2.415891 0,-0.730339 -0.214263,-1.74223 -0.476141,-2.248643 -0.474672,-0.917916 -0.47009,-0.926227 1.486787,-2.6971 2.170205,-1.963923 6.61375,-4.321034 9.709353,-5.150393 2.73912,-0.733856 8.239837,-0.976164 10.92153,-0.481098 5.399971,0.996886 9.764959,3.320521 13.87847,7.38799 2.862073,2.830038 4.72223,5.967836 5.959718,10.053135 0.76296,2.518755 0.875389,3.441936 0.896333,7.36 0.02058,3.849417 -0.08163,4.816223 -0.726135,6.868722 C 91.643431,95.1244 82.838743,102.05139 71.679998,102.5662 c -1.928355,0.089 -3.956329,-0.0333 -5.545875,-0.33449 z m 8.572579,-9.281697 c 4.735683,-1.233491 8.365648,-4.250998 10.528061,-8.75174 l 1.325235,-2.758279 v -3.999999 c 0,-3.932125 -0.01949,-4.040727 -1.149392,-6.4 -2.996611,-6.257107 -8.180877,-9.669407 -14.690608,-9.669407 -5.48712,0 -9.809004,2.224377 -13.015363,6.698722 -1.944198,2.713043 -2.734409,5.04824 -2.911683,8.604451 -0.242976,4.874278 1.180221,8.504649 4.691984,11.968553 3.354211,3.308505 6.666154,4.735286 11.08783,4.77662 1.239024,0.01158 3.099293,-0.199433 4.133936,-0.468921 z M 244.77538,63.70461 c -1.11779,-1.117792 -1.22462,-2.450611 -0.29149,-3.636889 1.32595,-1.685674 3.96301,-1.279005 4.79936,0.740128 0.35224,0.850393 0.33549,1.161401 -0.11322,2.102361 -0.90382,1.895334 -2.92784,2.261206 -4.39465,0.7944 z"
       id="path3848"
       inkscape:connector-curvature="0" />
  </g>
  <path
     style="fill:#ffffff;fill-opacity:0;stroke-width:0.15109654"
     d="m 145.97796,110.39502 c -10.62511,-1.67737 -18.60145,-9.33666 -20.92281,-20.091125 -0.94314,-4.369417 -0.80611,-9.627532 0.372,-14.275168 2.13249,-8.412615 8.33911,-15.143797 16.37345,-17.757279 2.76338,-0.898895 3.41719,-0.982651 7.63262,-0.977776 5.15658,0.006 7.30547,0.431956 10.70916,2.122965 1.56181,0.775936 4.36774,2.602193 5.3786,3.500698 0.61315,0.544996 0.66003,0.63429 0.50491,0.961597 -0.35137,0.741409 -1.58433,2.271961 -1.77215,2.199888 -0.10587,-0.04062 -0.94192,-0.613034 -1.8579,-1.27202 -4.36531,-3.140556 -8.41178,-4.400183 -13.56619,-4.223024 -5.03837,0.17317 -9.23588,1.807076 -12.94994,5.040844 -3.21591,2.800033 -6.02172,7.509693 -7.07429,11.874429 -0.76304,3.164162 -0.71862,10.428009 0.0806,13.178336 2.24496,7.725566 7.59744,13.493885 14.42779,15.548685 3.46658,1.04286 7.7858,1.16697 11.4006,0.32758 2.71091,-0.6295 4.61637,-1.58157 8.09613,-4.04526 1.38611,-0.98137 1.64522,-1.02187 2.23564,-0.34942 0.26233,0.29878 0.62256,0.82863 0.80051,1.17743 l 0.32354,0.6342 -0.96477,0.87811 c -2.77421,2.52501 -7.13735,4.63222 -11.01269,5.31867 -1.67736,0.29711 -6.8643,0.44085 -8.21481,0.22764 z"
     id="path14"
     inkscape:connector-curvature="0" />
  <path
     style="fill:#ffffff;fill-opacity:0;stroke-width:0.15109654"
     d="m 145.97796,110.39502 c -10.62511,-1.67737 -18.60145,-9.33666 -20.92281,-20.091125 -0.94314,-4.369417 -0.80611,-9.627532 0.372,-14.275168 2.13249,-8.412615 8.33911,-15.143797 16.37345,-17.757279 2.76338,-0.898895 3.41719,-0.982651 7.63262,-0.977776 5.15658,0.006 7.30547,0.431956 10.70916,2.122965 1.56181,0.775936 4.36774,2.602193 5.3786,3.500698 0.61315,0.544996 0.66003,0.63429 0.50491,0.961597 -0.35137,0.741409 -1.58433,2.271961 -1.77215,2.199888 -0.10587,-0.04062 -0.94192,-0.613034 -1.8579,-1.27202 -4.36531,-3.140556 -8.41178,-4.400183 -13.56619,-4.223024 -5.03837,0.17317 -9.23588,1.807076 -12.94994,5.040844 -3.21591,2.800033 -6.02172,7.509693 -7.07429,11.874429 -0.76304,3.164162 -0.71862,10.428009 0.0806,13.178336 2.24496,7.725566 7.59744,13.493885 14.42779,15.548685 3.46658,1.04286 7.7858,1.16697 11.4006,0.32758 2.71091,-0.6295 4.61637,-1.58157 8.09613,-4.04526 1.38611,-0.98137 1.64522,-1.02187 2.23564,-0.34942 0.26233,0.29878 0.62256,0.82863 0.80051,1.17743 l 0.32354,0.6342 -0.96477,0.87811 c -2.77421,2.52501 -7.13735,4.63222 -11.01269,5.31867 -1.67736,0.29711 -6.8643,0.44085 -8.21481,0.22764 z"
     id="path16"
     inkscape:connector-curvature="0" />
  <path
     style="fill:#ffffff;fill-opacity:0;stroke-width:0.15109654"
     d="m 145.97796,110.39502 c -10.62511,-1.67737 -18.60145,-9.33666 -20.92281,-20.091125 -0.94314,-4.369417 -0.80611,-9.627532 0.372,-14.275168 2.13249,-8.412615 8.33911,-15.143797 16.37345,-17.757279 2.76338,-0.898895 3.41719,-0.982651 7.63262,-0.977776 5.15658,0.006 7.30547,0.431956 10.70916,2.122965 1.56181,0.775936 4.36774,2.602193 5.3786,3.500698 0.61315,0.544996 0.66003,0.63429 0.50491,0.961597 -0.35137,0.741409 -1.58433,2.271961 -1.77215,2.199888 -0.10587,-0.04062 -0.94192,-0.613034 -1.8579,-1.27202 -4.36531,-3.140556 -8.41178,-4.400183 -13.56619,-4.223024 -5.03837,0.17317 -9.23588,1.807076 -12.94994,5.040844 -3.21591,2.800033 -6.02172,7.509693 -7.07429,11.874429 -0.76304,3.164162 -0.71862,10.428009 0.0806,13.178336 2.24496,7.725566 7.59744,13.493885 14.42779,15.548685 3.46658,1.04286 7.7858,1.16697 11.4006,0.32758 2.71091,-0.6295 4.61637,-1.58157 8.09613,-4.04526 1.38611,-0.98137 1.64522,-1.02187 2.23564,-0.34942 0.26233,0.29878 0.62256,0.82863 0.80051,1.17743 l 0.32354,0.6342 -0.96477,0.87811 c -2.77421,2.52501 -7.13735,4.63222 -11.01269,5.31867 -1.67736,0.29711 -6.8643,0.44085 -8.21481,0.22764 z"
     id="path18"
     inkscape:connector-curvature="0" />
</svg>
